<?xml version="1.0" encoding="utf-8" standalone="yes"?>
<!DOCTYPE svg PUBLIC "-//W3C//DTD SVG 1.1//EN" "http://www.w3.org/Graphics/SVG/1.1/DTD/svg11.dtd">
<svg width="959" height="454" viewBox="0 0 959 454" style="fill:none;stroke:none;fill-rule:evenodd;clip-rule:evenodd;stroke-linecap:round;stroke-linejoin:round;stroke-miterlimit:1.5;" version="1.1" xmlns="http://www.w3.org/2000/svg" xmlns:xlink="http://www.w3.org/1999/xlink"><style class="text-font-style fontImports" data-font-family="Roboto">@import url('https://fonts.googleapis.com/css2?family=Roboto:wght@400;700&amp;display=block');</style><g id="items" style="isolation: isolate"><g id="blend" style="mix-blend-mode: normal"><g id="g-root-sy_-1_line_1hyc8rss938-fill" data-item-order="-5459" transform="translate(857, 289.99609375)"></g><g id="g-root-sy_-1_vector_1q6z02grss9ot-fill" data-item-order="-5455" transform="translate(14, 289.99609375)"></g><g id="g-root-sy_9_cu-smallCircle_1lr5hy0rssah2-fill" data-item-order="-5451" transform="translate(851, 287)"></g><g id="g-root-sy_8_cu-smallCircle_1cw4ys8rss83z-fill" data-item-order="-5447" transform="translate(755, 287)"></g><g id="g-root-sy_7_cu-smallCircle_18gbgnsrss8w8-fill" data-item-order="-5443" transform="translate(659, 287)"></g><g id="g-root-sy_6_cu-smallCircle_140hyjcrss9oh-fill" data-item-order="-5439" transform="translate(563, 287)"></g><g id="g-root-sy_5_cu-smallCircle_v4uyagrssah6-fill" data-item-order="-5435" transform="translate(467, 287)"></g><g id="g-root-sy_4_cu-smallCircle_qpnx94rss83n-fill" data-item-order="-5431" transform="translate(371, 287)"></g><g id="g-root-sy_3_cu-smallCircle_hu0x08rss8wc-fill" data-item-order="-5427" transform="translate(275, 287)"></g><g id="g-root-sy_2_cu-smallCircle_de7evsrss9ol-fill" data-item-order="-5423" transform="translate(179, 287)"></g><g id="g-root-sy_1_cu-smallCircle_3ddlkrss83q-fill" data-item-order="-5419" transform="translate(83, 287)"></g><g id="g-root-ic_arti_zpo93srss9vt-fill" data-item-order="0" transform="translate(830, 230)"></g><g id="g-root-ic_5_1utnwgorsv3ez-fill" data-item-order="0" transform="translate(638, 230)"></g><g id="g-root-tx__142ddsorss8ow-fill" data-item-order="0" transform="translate(692, 362)"><g id="tx__142ddsorss8ow-fill" stroke="none" fill="#484848"><g><text style="font: 20px Roboto, sans-serif; white-space: pre;" font-size="20px" font-family="Roboto, sans-serif"><tspan x="16" y="33.5" dominant-baseline="ideographic">開發功能規格</tspan></text></g></g></g><g id="g-root-ic_2_de7od4rssavg-fill" data-item-order="0" transform="translate(254, 230)"></g><g id="g-root-ic_spee_qssk60rsxude-fill" data-item-order="0" transform="translate(62, 230)"></g><g id="g-root-tx__1lt0x7crss9hj-fill" data-item-order="0" transform="translate(788, 194)"><g id="tx__1lt0x7crss9hj-fill" stroke="none" fill="#484848"><g><text style="font: 20px Roboto, sans-serif; white-space: pre;" font-size="20px" font-family="Roboto, sans-serif"><tspan x="16" y="33.5" dominant-baseline="ideographic">構建原型網站</tspan></text></g></g></g><g id="g-root-tx_wbsrbs_1luwcgorss8hv-fill" data-item-order="0" transform="translate(398, 194)"><g id="tx_wbsrbs_1luwcgorss8hv-fill" stroke="none" fill="#484848"><g><text style="font: 20px Roboto, sans-serif; white-space: pre;" font-size="20px" font-family="Roboto, sans-serif"><tspan x="12.63" y="33.5" dominant-baseline="ideographic">創建WBS和RBS</tspan></text></g></g></g><g id="g-root-tx__hx5afsrssa2t-fill" data-item-order="0" transform="translate(212, 194)"><g id="tx__hx5afsrssa2t-fill" stroke="none" fill="#484848"><g><text style="font: 20px Roboto, sans-serif; white-space: pre;" font-size="20px" font-family="Roboto, sans-serif"><tspan x="16" y="33.5" dominant-baseline="ideographic">列出用戶需求</tspan></text></g></g></g><g id="g-root-tx__1ursavsrss93j-fill" data-item-order="0" transform="translate(44, 194)"><g id="tx__1ursavsrss93j-fill" stroke="none" fill="#484848"><g><text style="font: 20px Roboto, sans-serif; white-space: pre;" font-size="20px" font-family="Roboto, sans-serif"><tspan x="12" y="33.5" dominant-baseline="ideographic">生成提示</tspan></text></g></g></g><g id="g-root-ic_pure_592c8rss8ax-fill" data-item-order="0" transform="translate(158, 302)"></g><g id="g-root-ic_time_1uoo6xkrsqvpo-fill" data-item-order="0" transform="translate(350, 302)"></g><g id="g-root-ic_spar_dcy42gukpn2d-fill" data-item-order="0" transform="translate(542, 302)"></g><g id="g-root-ic_illu_1q9h2qgrss9a9-fill" data-item-order="0" transform="translate(734, 302)"></g><g id="g-root-tx__hv9v6grssb2h-fill" data-item-order="0" transform="translate(578, 170)"><g id="tx__hv9v6grssb2h-fill" stroke="none" fill="#484848"><g><text style="font: 20px Roboto, sans-serif; white-space: pre;" font-size="20px" font-family="Roboto, sans-serif"><tspan x="14" y="45.5" dominant-baseline="ideographic">規劃任務和儀表板</tspan></text></g></g></g><g id="g-root-tx__91ia6wrssavi-fill" data-item-order="0" transform="translate(116, 362)"><g id="tx__91ia6wrssavi-fill" stroke="none" fill="#484848"><g><text style="font: 20px Roboto, sans-serif; white-space: pre;" font-size="20px" font-family="Roboto, sans-serif"><tspan x="16" y="33.5" dominant-baseline="ideographic">創建專案章程</tspan></text></g></g></g><g id="g-root-tx__znstugrssavg-fill" data-item-order="0" transform="translate(308, 362)"><g id="tx__znstugrssavg-fill" stroke="none" fill="#484848"><g><text style="font: 20px Roboto, sans-serif; white-space: pre;" font-size="20px" font-family="Roboto, sans-serif"><tspan x="16" y="33.5" dominant-baseline="ideographic">準備分析報告</tspan></text></g></g></g><g id="g-root-tx__4mbrsrssa9u-fill" data-item-order="0" transform="translate(494, 362)"><g id="tx__4mbrsrssa9u-fill" stroke="none" fill="#484848"><g><text style="font: 20px Roboto, sans-serif; white-space: pre;" font-size="20px" font-family="Roboto, sans-serif"><tspan x="12" y="33.5" dominant-baseline="ideographic">創建專案企劃書</tspan></text></g></g></g><g id="g-root-tx_ai_1d14rh4rss8aw-fill" data-item-order="0" transform="translate(313.5, 110)"><g id="tx_ai_1d14rh4rss8aw-fill" stroke="none" fill="#484848"><g><text style="font: bold 30px Roboto, sans-serif; white-space: pre;" font-weight="bold" font-size="30px" font-family="Roboto, sans-serif"><tspan x="16.53" y="45.5" dominant-baseline="ideographic">AI驅動的專案管理任務</tspan></text></g></g></g><g id="g-root-ic_robo_18f2ot4rtak21-fill" data-item-order="0" transform="translate(446, 230)"></g><g id="g-root-sy_-1_line_1hyc8rss938-stroke" data-item-order="-5459" transform="translate(857, 289.99609375)"><g id="sy_-1_line_1hyc8rss938-stroke" fill="none" stroke-linecap="round" stroke-linejoin="round" stroke-miterlimit="4" stroke="#a3a3a3" stroke-width="2"><g><path d="M 76 10.003906L 10 10.003906"></path><path d="M 70 16.503906L 76.5 10.003906L 70 3.503906" stroke-dasharray="none"></path></g></g></g><g id="g-root-sy_-1_vector_1q6z02grss9ot-stroke" data-item-order="-5455" transform="translate(14, 289.99609375)"><g id="sy_-1_vector_1q6z02grss9ot-stroke" fill="none" stroke-linecap="round" stroke-linejoin="round" stroke-miterlimit="4" stroke="#a3a3a3" stroke-width="2"><g><path d="M 847 9.999992L 757 9.999992M 751 9.999992L 661 9.999992M 655 9.999992L 565 9.999992M 559 9.999992L 469 9.999992M 463 9.999992L 373 9.999992M 367 9.999992L 277 9.999992M 271 9.999992L 181 9.999992M 174.9976 9.999992L 84.9976 9.999992M 78.9976 9.999992L 10 9.999992"></path></g></g></g><g id="g-root-sy_9_cu-smallCircle_1lr5hy0rssah2-stroke" data-item-order="-5451" transform="translate(851, 287)"><g id="sy_9_cu-smallCircle_1lr5hy0rssah2-stroke" fill="none" stroke-linecap="round" stroke-linejoin="round" stroke-miterlimit="4" stroke="#969696" stroke-width="2"><g><path d="M 16 13C 16 14.6569 14.6569 16 13 16C 11.3431 16 10 14.6569 10 13C 10 11.3431 11.3431 10 13 10C 14.6569 10 16 11.3431 16 13Z"></path></g></g></g><g id="g-root-sy_8_cu-smallCircle_1cw4ys8rss83z-stroke" data-item-order="-5447" transform="translate(755, 287)"><g id="sy_8_cu-smallCircle_1cw4ys8rss83z-stroke" fill="none" stroke-linecap="round" stroke-linejoin="round" stroke-miterlimit="4" stroke="#969696" stroke-width="2"><g><path d="M 16 13C 16 14.6569 14.6569 16 13 16C 11.3431 16 10 14.6569 10 13C 10 11.3431 11.3431 10 13 10C 14.6569 10 16 11.3431 16 13Z"></path></g></g></g><g id="g-root-sy_7_cu-smallCircle_18gbgnsrss8w8-stroke" data-item-order="-5443" transform="translate(659, 287)"><g id="sy_7_cu-smallCircle_18gbgnsrss8w8-stroke" fill="none" stroke-linecap="round" stroke-linejoin="round" stroke-miterlimit="4" stroke="#969696" stroke-width="2"><g><path d="M 16 13C 16 14.6569 14.6569 16 13 16C 11.3431 16 10 14.6569 10 13C 10 11.3431 11.3431 10 13 10C 14.6569 10 16 11.3431 16 13Z"></path></g></g></g><g id="g-root-sy_6_cu-smallCircle_140hyjcrss9oh-stroke" data-item-order="-5439" transform="translate(563, 287)"><g id="sy_6_cu-smallCircle_140hyjcrss9oh-stroke" fill="none" stroke-linecap="round" stroke-linejoin="round" stroke-miterlimit="4" stroke="#969696" stroke-width="2"><g><path d="M 16 13C 16 14.6569 14.6569 16 13 16C 11.3431 16 10 14.6569 10 13C 10 11.3431 11.3431 10 13 10C 14.6569 10 16 11.3431 16 13Z"></path></g></g></g><g id="g-root-sy_5_cu-smallCircle_v4uyagrssah6-stroke" data-item-order="-5435" transform="translate(467, 287)"><g id="sy_5_cu-smallCircle_v4uyagrssah6-stroke" fill="none" stroke-linecap="round" stroke-linejoin="round" stroke-miterlimit="4" stroke="#969696" stroke-width="2"><g><path d="M 16 13C 16 14.6569 14.6569 16 13 16C 11.3431 16 10 14.6569 10 13C 10 11.3431 11.3431 10 13 10C 14.6569 10 16 11.3431 16 13Z"></path></g></g></g><g id="g-root-sy_4_cu-smallCircle_qpnx94rss83n-stroke" data-item-order="-5431" transform="translate(371, 287)"><g id="sy_4_cu-smallCircle_qpnx94rss83n-stroke" fill="none" stroke-linecap="round" stroke-linejoin="round" stroke-miterlimit="4" stroke="#969696" stroke-width="2"><g><path d="M 16 13C 16 14.6569 14.6569 16 13 16C 11.3431 16 10 14.6569 10 13C 10 11.3431 11.3431 10 13 10C 14.6569 10 16 11.3431 16 13Z"></path></g></g></g><g id="g-root-sy_3_cu-smallCircle_hu0x08rss8wc-stroke" data-item-order="-5427" transform="translate(275, 287)"><g id="sy_3_cu-smallCircle_hu0x08rss8wc-stroke" fill="none" stroke-linecap="round" stroke-linejoin="round" stroke-miterlimit="4" stroke="#969696" stroke-width="2"><g><path d="M 16 13C 16 14.6569 14.6569 16 13 16C 11.3431 16 10 14.6569 10 13C 10 11.3431 11.3431 10 13 10C 14.6569 10 16 11.3431 16 13Z"></path></g></g></g><g id="g-root-sy_2_cu-smallCircle_de7evsrss9ol-stroke" data-item-order="-5423" transform="translate(179, 287)"><g id="sy_2_cu-smallCircle_de7evsrss9ol-stroke" fill="none" stroke-linecap="round" stroke-linejoin="round" stroke-miterlimit="4" stroke="#969696" stroke-width="2"><g><path d="M 16 13C 16 14.6569 14.6569 16 13 16C 11.3431 16 10 14.6569 10 13C 10 11.3431 11.3431 10 13 10C 14.6569 10 16 11.3431 16 13Z"></path></g></g></g><g id="g-root-sy_1_cu-smallCircle_3ddlkrss83q-stroke" data-item-order="-5419" transform="translate(83, 287)"><g id="sy_1_cu-smallCircle_3ddlkrss83q-stroke" fill="none" stroke-linecap="round" stroke-linejoin="round" stroke-miterlimit="4" stroke="#969696" stroke-width="2"><g><path d="M 16 13C 16 14.6569 14.6569 16 13 16C 11.3431 16 10 14.6569 10 13C 10 11.3431 11.3431 10 13 10C 14.6569 10 16 11.3431 16 13Z"></path></g></g></g><g id="g-root-ic_arti_zpo93srss9vt-stroke" data-item-order="0" transform="translate(830, 230)"><g id="ic_arti_zpo93srss9vt-stroke" fill="none" stroke-linecap="round" stroke-linejoin="round" stroke-miterlimit="4" stroke="#4e88e7" stroke-width="2"><g><path d="M 56.736 51.846001L 44.736 56.987999L 44.736 43.273998L 56.736 38.132L 56.736 51.846001ZM 32.736 51.846001L 44.736 56.987999L 44.736 43.273998L 32.736 38.132L 32.736 51.846001ZM 44.736 32.987999L 56.736 38.132L 44.736 43.273998L 32.736 38.132L 44.736 32.987999ZM 29 55.012001L 15 55.012001C 12.790861 55.012001 11 53.221138 11 51.012001L 11 15.012C 11 12.802861 12.790861 11.012 15 11.012L 53 11.012C 55.209141 11.012 57 12.802861 57 15.012L 57 33.012001M 11 21.012001L 57 21.012001M 18 15.512C 18.276142 15.512 18.5 15.735857 18.5 16.012001C 18.5 16.288143 18.276142 16.512001 18 16.512001C 17.723858 16.512001 17.5 16.288143 17.5 16.012001C 17.5 15.735857 17.723858 15.512 18 15.512M 24 15.512C 24.276142 15.512 24.5 15.735857 24.5 16.012001C 24.5 16.288143 24.276142 16.512001 24 16.512001C 23.723858 16.512001 23.5 16.288143 23.5 16.012001C 23.5 15.735857 23.723858 15.512 24 15.512M 30 15.512C 30.276142 15.512 30.5 15.735857 30.5 16.012001C 30.5 16.288143 30.276142 16.512001 30 16.512001C 29.723858 16.512001 29.5 16.288143 29.5 16.012001C 29.5 15.735857 29.723858 15.512 30 15.512"></path></g></g></g><g id="g-root-ic_5_1utnwgorsv3ez-stroke" data-item-order="0" transform="translate(638, 230)"><g id="ic_5_1utnwgorsv3ez-stroke" fill="none" stroke-linecap="round" stroke-linejoin="round" stroke-miterlimit="4" stroke="#de8431" stroke-width="2"><g><path d="M 36.5 19.5L 12.5 19.5C 11.9 19.5 11.5 19.1 11.5 18.5L 11.5 13.5C 11.5 12.9 11.9 12.5 12.5 12.5L 36.5 12.5C 37.099998 12.5 37.5 12.9 37.5 13.5L 37.5 18.5C 37.5 19.1 37.099998 19.5 36.5 19.5ZM 55.5 43.5L 22.5 43.5C 21.9 43.5 21.5 43.099998 21.5 42.5L 21.5 37.5C 21.5 36.900002 21.9 36.5 22.5 36.5L 55.5 36.5C 56.099998 36.5 56.5 36.900002 56.5 37.5L 56.5 42.5C 56.5 43.099998 56.099998 43.5 55.5 43.5ZM 55.5 55.5L 41.5 55.5C 40.900002 55.5 40.5 55.099998 40.5 54.5L 40.5 49.5C 40.5 48.900002 40.900002 48.5 41.5 48.5L 55.5 48.5C 56.099998 48.5 56.5 48.900002 56.5 49.5L 56.5 54.5C 56.5 55.099998 56.099998 55.5 55.5 55.5ZM 36.426003 32.732002L 32.318001 28.625999C 32.146553 28.462906 32.0495 28.236631 32.0495 28C 32.0495 27.763371 32.146553 27.537094 32.318001 27.374001L 36.424 23.268C 36.587097 23.096554 36.81337 22.9995 37.050003 22.9995C 37.286629 22.9995 37.512909 23.096554 37.676003 23.268002L 41.781998 27.374001C 41.953449 27.537094 42.050503 27.763371 42.050503 28C 42.050503 28.236631 41.953449 28.462906 41.782001 28.626001L 37.676003 32.732002C 37.496002 33.09 36.781998 33.09 36.426003 32.732002Z"></path></g></g></g><g id="g-root-tx__142ddsorss8ow-stroke" data-item-order="0" transform="translate(692, 362)"></g><g id="g-root-ic_2_de7od4rssavg-stroke" data-item-order="0" transform="translate(254, 230)"><g id="ic_2_de7od4rssavg-stroke" fill="none" stroke-linecap="round" stroke-linejoin="round" stroke-miterlimit="4" stroke="#92bd39" stroke-width="2"><g><path d="M 25.56348 56.1236L 25.56348 45.555801M 43.274799 56.1236L 43.274799 51.063202L 45.805 51.063202C 47.147202 51.063202 48.4342 50.529999 49.383202 49.581001C 50.332199 48.632 50.865398 47.344799 50.865398 46.0028L 50.865398 40.942398L 54.0704 40.942398C 54.2756 40.942001 54.477798 40.8918 54.659401 40.795998C 54.841 40.700199 54.996601 40.561798 55.112801 40.392403C 55.229 40.223198 55.302399 40.028198 55.326401 39.8242C 55.350399 39.620201 55.3246 39.413601 55.250999 39.221802C 51.689201 29.981899 49.293201 21.58268 41.702 18.990181M 12.666019 38.595802L 12.666019 32.127998L 19.22216 32.127998L 19.22216 38.595802L 12.666019 38.595802ZM 10 10M 13.3955 14.18476L 15.75684 16.546501L 20.42688 11.876464M 10 10M 13.3955 24.310261L 15.75684 26.67202L 20.42688 22.00198M 26.84082 14.21148L 36.334 14.21148M 26.84082 24.89072L 36.334 24.89072M 26.84082 35.362L 36.334 35.362"></path></g></g></g><g id="g-root-ic_spee_qssk60rsxude-stroke" data-item-order="0" transform="translate(62, 230)"><g id="ic_spee_qssk60rsxude-stroke" fill="none" stroke-linecap="round" stroke-linejoin="round" stroke-miterlimit="4" stroke="#4e88e7" stroke-width="2"><g><path d="M 26.83 23L 26.83 13.308001C 26.83 12.033327 27.863327 11 29.138 11L 54.521999 11C 55.796673 11 56.830002 12.033327 56.830002 13.308001L 56.830002 30.691999C 56.830002 31.966673 55.796673 33 54.521999 33L 43.560001 33L 34.905998 39L 34.905998 33L 31.138 33M 32.905998 17L 50.751999 17M 32.905998 22L 50.751999 22M 32.905998 27L 44.138 27M 34.742001 54.858002C 34.740898 56.040539 33.782539 56.998898 32.599998 57L 13.314 57C 12.130682 57 11.171103 56.041317 11.17 54.858002L 11.17 49.5C 11.17 42.990772 16.446772 37.714001 22.956001 37.714001C 29.465229 37.714001 34.742001 42.990772 34.742001 49.5ZM 18.456001 45C 18.456001 45.276142 18.679857 45.5 18.956001 45.5C 19.232143 45.5 19.456001 45.276142 19.456001 45C 19.456001 44.723858 19.232143 44.5 18.956001 44.5C 18.679857 44.5 18.456001 44.723858 18.456001 45M 26.455999 44.987999C 26.455999 45.264141 26.679857 45.487999 26.955999 45.487999C 27.232141 45.487999 27.455999 45.264141 27.455999 44.987999C 27.455999 44.711857 27.232141 44.487999 26.955999 44.487999C 26.679857 44.487999 26.455999 44.711857 26.455999 44.987999M 22.956001 37.714001L 22.956001 33.428001M 19.742001 30.214001C 19.742001 31.989044 21.180958 33.428001 22.956001 33.428001C 24.731045 33.428001 26.17 31.989044 26.17 30.214001C 26.17 28.438957 24.731045 27 22.956001 27C 21.180958 27 19.742001 28.438957 19.742001 30.214001M 11.17 51.630001L 34.742001 51.630001"></path></g></g></g><g id="g-root-tx__1lt0x7crss9hj-stroke" data-item-order="0" transform="translate(788, 194)"></g><g id="g-root-tx_wbsrbs_1luwcgorss8hv-stroke" data-item-order="0" transform="translate(398, 194)"></g><g id="g-root-tx__hx5afsrssa2t-stroke" data-item-order="0" transform="translate(212, 194)"></g><g id="g-root-tx__1ursavsrss93j-stroke" data-item-order="0" transform="translate(44, 194)"></g><g id="g-root-ic_pure_592c8rss8ax-stroke" data-item-order="0" transform="translate(158, 302)"><g id="ic_pure_592c8rss8ax-stroke" fill="none" stroke-linecap="round" stroke-linejoin="round" stroke-miterlimit="4" stroke="#3cc583" stroke-width="2"><g><path d="M 28 32L 24 36L 40 36L 44 32L 28 32ZM 28 27.5L 24 23.5L 40 23.5L 44 27.5L 28 27.5ZM 28 44.5L 24 40.5L 40 40.5L 44 44.5L 28 44.5ZM 20.5 48.32L 11.58 39.419998C 11.201375 39.044464 10.988403 38.533276 10.988403 38C 10.988403 37.466724 11.201375 36.955536 11.58 36.580002L 20.5 27.68L 23.32 30.5L 15.82 38L 23.32 45.5ZM 47.5 19.68L 56.419998 28.58C 56.798626 28.955534 57.011597 29.466724 57.011597 30C 57.011597 30.533276 56.798626 31.044466 56.419998 31.42L 47.5 40.32L 44.68 37.5L 52.18 30L 44.68 22.5Z"></path></g></g></g><g id="g-root-ic_time_1uoo6xkrsqvpo-stroke" data-item-order="0" transform="translate(350, 302)"><g id="ic_time_1uoo6xkrsqvpo-stroke" fill="none" stroke-linecap="round" stroke-linejoin="round" stroke-miterlimit="4" stroke="#1eabda" stroke-width="2"><g><path d="M 34.5 11.5C 34.5 17.1 42.5 21.70002 53.700001 21.70002L 56.5 21.70002M 56.5 27.700199C 36.700001 27.700199 21.5 20.9002 21.5 12.7002M 40.300201 33.099998C 21.900101 34.700001 12.1001 40.700199 12.1001 47.700199M 32.099998 43.099998C 25.5 45.700001 21.5 49.5 21.5 53.5M 54.5 33.5L 56.5 33.5M 11.5 18.5C 11.5 25.5 21.5 31.5 40.299999 33.099998M 47.5 56.5C 52.4706 56.5 56.5 52.4706 56.5 47.5C 56.5 42.5294 52.4706 38.5 47.5 38.5C 42.5294 38.5 38.5 42.5294 38.5 47.5C 38.5 52.4706 42.5294 56.5 47.5 56.5ZM 47.5 38.5L 47.5 47.5L 56.453201 46.585999"></path></g></g></g><g id="g-root-ic_spar_dcy42gukpn2d-stroke" data-item-order="0" transform="translate(542, 302)"><g id="ic_spar_dcy42gukpn2d-stroke" fill="none" stroke-linecap="round" stroke-linejoin="round" stroke-miterlimit="4" stroke="#de8431" stroke-width="2"><g><path d="M 38 51L 13 51C 11.895431 51 11 50.104568 11 49L 11 13C 11 11.895431 11.895431 11 13 11L 41 11C 42.104568 11 43 11.895431 43 13L 43 25M 23 17L 35 17M 23 23L 35 23M 23 29L 28 29M 17 16.5C 17.276142 16.5 17.5 16.723858 17.5 17C 17.5 17.276142 17.276142 17.5 17 17.5C 16.723858 17.5 16.5 17.276142 16.5 17C 16.5 16.723858 16.723858 16.5 17 16.5M 17 22.5C 17.276142 22.5 17.5 22.723858 17.5 23C 17.5 23.276142 17.276142 23.5 17 23.5C 16.723858 23.5 16.5 23.276142 16.5 23C 16.5 22.723858 16.723858 22.5 17 22.5M 17 28.5C 17.276142 28.5 17.5 28.723858 17.5 29C 17.5 29.276142 17.276142 29.5 17 29.5C 16.723858 29.5 16.5 29.276142 16.5 29C 16.5 28.723858 16.723858 28.5 17 28.5M 44.84 30.34C 44.84 30.34 43.639999 28.34 39.620003 29.42C 33.84 30.860001 32.419998 37.279999 32.299999 38.02M 29.18 39.940002L 25.619999 45.639999L 32.299999 45.060001M 40.440002 40L 51.060001 33.5C 52.163898 32.543274 52.418209 30.930513 51.662285 29.680517C 50.906357 28.430521 49.359974 27.906717 48 28.440001L 29.18 40L 32.299999 45.119999L 36 42.82M 46.200001 41.779999L 38.580002 39.52C 37.782471 39.222481 36.88562 39.394005 36.254162 39.964817C 35.6227 40.535629 35.361794 41.410664 35.577545 42.234085C 35.793293 43.057507 36.449764 43.692173 37.279999 43.880001L 42.080002 45.459999C 42.528664 48.148449 44.574711 50.289661 47.240002 50.860001L 47.419998 50.860001L 48 57M 57 57C 57 57 54.740002 39.419998 49.119999 34.760002"></path></g></g></g><g id="g-root-ic_illu_1q9h2qgrss9a9-stroke" data-item-order="0" transform="translate(734, 302)"><g id="ic_illu_1q9h2qgrss9a9-stroke" fill="none" stroke-linecap="round" stroke-linejoin="round" stroke-miterlimit="4" stroke="#e55753" stroke-width="2"><g><path d="M 10 10M 41 21L 43.307999 23.6C 43.481792 23.832338 43.747925 23.977741 44.037331 23.998466C 44.326733 24.019194 44.610874 23.9132 44.816002 23.708L 51 18M 41 33L 43.307999 35.599998C 43.481792 35.832336 43.747925 35.977737 44.037331 35.998466C 44.326733 36.019196 44.610874 35.9132 44.816002 35.708L 51 30M 57 44.172001C 56.999886 44.702389 56.789101 45.211014 56.414001 45.585999L 45.585999 56.414001C 45.211014 56.789101 44.702389 56.999886 44.172001 57L 13 57C 11.895431 57 11 56.104568 11 55L 11 13C 11 11.895431 11.895431 11 13 11L 55 11C 56.104568 11 57 11.895431 57 13ZM 56.82 45L 47 45C 45.895432 45 45 45.895432 45 47L 45 56.82M 17 43L 33 43M 17 49L 33 49M 27 37L 18 37C 17.447716 37 17 36.552284 17 36L 17 18.618C 17.000011 18.271271 17.17963 17.949295 17.474657 17.767143C 17.769684 17.584991 18.138014 17.568666 18.448 17.723999L 27 22ZM 27 25L 34 25C 34.552284 25 35 25.447716 35 26L 35 36C 35 36.552284 34.552284 37 34 37L 27 37M 17 25L 22 25M 17 29L 22 29M 27 22L 27 17M 33 25L 33 20M 27 29L 30 29M 27 33L 30 33"></path></g></g></g><g id="g-root-tx__hv9v6grssb2h-stroke" data-item-order="0" transform="translate(578, 170)"></g><g id="g-root-tx__91ia6wrssavi-stroke" data-item-order="0" transform="translate(116, 362)"></g><g id="g-root-tx__znstugrssavg-stroke" data-item-order="0" transform="translate(308, 362)"></g><g id="g-root-tx__4mbrsrssa9u-stroke" data-item-order="0" transform="translate(494, 362)"></g><g id="g-root-tx_ai_1d14rh4rss8aw-stroke" data-item-order="0" transform="translate(313.5, 110)"></g><g id="g-root-ic_robo_18f2ot4rtak21-stroke" data-item-order="0" transform="translate(446, 230)"><g id="ic_robo_18f2ot4rtak21-stroke" fill="none" stroke-linecap="round" stroke-linejoin="round" stroke-miterlimit="4" stroke="#7f64ea" stroke-width="2"><g><path d="M 21.59668 46.254799C 29.73584 54.394001 38.370598 58.988602 43.160599 54.198399C 47.9394 49.4198 43.380798 40.798203 35.216999 32.634598C 27.053301 24.4708 18.4186 19.87632 13.62854 24.66638C 8.849828 29.445101 13.40836 38.066601 21.5721 46.230202L 21.59668 46.254799ZM 33.573799 23.817921C 29.819901 25.39152 25.65192 28.55706 21.596859 32.612198L 21.572281 32.636803C 13.43314 40.775803 8.838662 49.410599 13.62872 54.2006C 18.407421 58.979401 27.0289 54.420799 35.1926 46.257C 39.016197 42.433601 42.056599 38.506798 43.716801 34.919998M 43.82 16.93L 52.591999 16.93C 52.591999 16.93 56.591999 16.93 56.591999 20.93L 56.591999 25.978001C 56.591999 25.978001 56.591999 29.978001 52.591999 29.978001L 43.82 29.978001C 43.82 29.978001 39.82 29.978001 39.82 25.978001L 39.82 20.93C 39.82 20.93 39.82 16.93 43.82 16.93M 10 10M 48.207001 11.78334L 48.207001 16.92968M 10 10M 45.457001 22.2936L 45.457001 24.61718M 10 10M 50.957001 22.2936L 50.957001 24.61718"></path></g></g></g></g></g><path id="wzp2e6wuan8js" d="M65.283 12.757a.35.35 0 0 0 .584.157l5.203-5.141-6.183 3.523.396 1.461zm-2.216-11.7a.35.35 0 0 0-.522.305v3.111l3.276-1.868-2.754-1.548zm3.728 2.105l-4.25 2.421v2.445l6.391-3.644-2.141-1.222zm4.708 3.303a.35.35 0 0 0 0-.609l-1.592-.9-7.365 4.199v1.782a.35.35 0 0 0 .523.305l8.435-4.777z M44.542 2.513c0-.433.355-.783.792-.783s.792.35.792.783-.355.783-.792.783-.792-.35-.792-.783zm59.171 0c0-.433.355-.783.792-.783s.792.35.792.783-.355.783-.792.783-.792-.35-.792-.783zm-85.951 7.636h-1.27v-.487c-.276.201-.864.609-1.881.609-1.202 0-2.274-.794-2.137-2.078.118-1.106 1.153-1.584 1.848-1.727l2.17-.345c0-.539-.29-.956-1.064-1.006s-1.21.305-1.571 1.017l-1.124-.605c1.218-2.631 5.029-1.764 5.029.414v4.207zm-1.27-2.86c.006.396-.062 1.112-.819 1.59-.587.37-1.841.299-1.903-.395-.049-.555.461-.791.906-.898l1.816-.297zm72.662 2.86h-1.27v-.487c-.276.201-.864.609-1.881.609-1.202 0-2.274-.794-2.137-2.078.118-1.106 1.153-1.584 1.848-1.727l2.17-.345c0-.539-.29-.956-1.064-1.006s-1.21.305-1.571 1.017l-1.124-.605c1.218-2.631 5.029-1.764 5.029.414v4.207zm-1.27-2.86c.006.396-.062 1.112-.82 1.59-.587.37-1.841.299-1.903-.395-.049-.555.461-.791.906-.898l1.816-.297zM99.096 10.149H97.85v-8.45h1.246v4.895l2.68-2.559h1.738l-2.633 2.535 2.715 3.578h-1.556l-2.077-2.707-.867.844v1.863zm6.053-6.114h-1.255v6.113h1.255V4.035zm-59.2 0h-1.255v6.113h1.255V4.035zm5.584 6.113V1.697h1.255v2.695c.361-.346 1-.485 1.47-.485 1.452 0 2.477 1.082 2.457 2.448v3.792h-1.27v-3.68c0-.408-.214-1.339-1.315-1.339-.968 0-1.342.756-1.342 1.339v3.681h-1.255zm-4.76-4.894V4.039h.621a.45.45 0 0 0 .45-.45v-.855h1.251v1.305h1.309v1.215h-1.309v3.109c0 .293.105.664.648.664.365 0 .531-.035.736-.07v1.137s-.361.113-.857.113c-1.398 0-1.777-1.051-1.777-1.788V5.254h-1.071zM36.528 4.039h-1.394l2.191 6.106h1.125l1.234-3.918 1.238 3.918h1.129l2.188-6.106h-1.383l-1.359 3.93-1.256-3.93h-1.124l-1.242 3.957-1.348-3.957zM26.212 7.141c-.02 1.566 1.187 3.129 3.223 3.129 1.566 0 2.383-.918 2.734-1.719L31.172 8c-.315.399-.801 1.094-1.738 1.094-1.145 0-1.825-.781-1.891-1.52h4.625c.074-.284.148-.995-.03-1.559-.336-1.064-1.221-2.102-2.839-2.102s-3.088 1.152-3.088 3.227zm1.363-.75h3.348c-.055-.43-.566-1.301-1.623-1.301a1.79 1.79 0 0 0-1.725 1.301zm-8.758.75c.038 1.758 1.277 3.133 3.145 3.133 1.074 0 1.723-.477 1.961-.672v.547h1.242V1.703h-1.258v2.888c-.414-.36-1.062-.68-1.93-.68-1.91 0-3.198 1.473-3.16 3.23zm1.309-.08c0 1.119.723 1.978 1.836 1.978a1.88 1.88 0 0 0 1.94-1.904c0-1.371-1.011-1.99-1.972-1.99s-1.805.798-1.805 1.916zm76.683-.028C96.771 5.275 95.532 3.9 93.664 3.9c-1.074 0-1.723.477-1.961.672v-.547h-1.242v8.22h1.258V9.583c.414.36 1.063.68 1.93.68 1.91 0 3.198-1.473 3.16-3.23zm-1.309.08c0-1.119-.723-1.978-1.836-1.978a1.88 1.88 0 0 0-1.94 1.904c0 1.371 1.011 1.99 1.972 1.99S95.5 8.231 95.5 7.113zM106.441 10.173V4.036h1.254v.382c.361-.346 1-.485 1.47-.485 1.452 0 2.477 1.082 2.457 2.448v3.792h-1.27V6.492c0-.408-.214-1.339-1.315-1.339-.969 0-1.342.756-1.342 1.339v3.681h-1.254zm-30.383-.021V1.824h1.084l4.215 5.777V1.824h1.32v8.328h-1.094l-4.207-5.796v5.796h-1.319zM5.24 10.149H4V2.377h1.014l2.664 3.597 2.654-3.592h1.03v7.766h-1.256V4.762L7.678 8.068 5.24 4.742v5.407z" transform="translate(833, 430)" fill="#80808088" stroke="none"></path></svg>