<?xml version="1.0" encoding="utf-8" standalone="yes"?>
<!DOCTYPE svg PUBLIC "-//W3C//DTD SVG 1.1//EN" "http://www.w3.org/Graphics/SVG/1.1/DTD/svg11.dtd">
<svg width="744" height="786" viewBox="0 0 744 786" style="fill:none;stroke:none;fill-rule:evenodd;clip-rule:evenodd;stroke-linecap:round;stroke-linejoin:round;stroke-miterlimit:1.5;" version="1.1" xmlns="http://www.w3.org/2000/svg" xmlns:xlink="http://www.w3.org/1999/xlink"><style class="text-font-style fontImports" data-font-family="Roboto">@import url('https://fonts.googleapis.com/css2?family=Roboto:wght@400;700&amp;display=block');</style><g id="items" style="isolation: isolate"><g id="blend" style="mix-blend-mode: normal"><g id="g-root-ro_1unfi94rt7ojo-fill" data-item-order="-27144" transform="translate(278, 281)"><g id="ro_1unfi94rt7ojo-fill" stroke="none" fill="#f5f5f5"><g><path d="M 34 10L 142 10C 142 10 166 10 166 34L 166 160C 166 160 166 184 142 184L 34 184C 34 184 10 184 10 160L 10 34C 10 34 10 10 34 10"></path></g></g></g><g id="g-root-ro_zqbcbsrsxuys-fill" data-item-order="-14256" transform="translate(42, 122)"><g id="ro_zqbcbsrsxuys-fill" stroke="none" fill="#ffebf7"><g><path d="M 22 10L 262 10C 262 10 274 10 274 22L 274 52C 274 52 274 64 262 64L 22 64C 22 64 10 64 10 52L 10 22C 10 22 10 10 22 10"></path></g></g></g><g id="g-root-ro_1q6d548rstog2-fill" data-item-order="-12312" transform="translate(242, 638)"><g id="ro_1q6d548rstog2-fill" stroke="none" fill="#fff2e5"><g><path d="M 22 10L 226 10C 226 10 238 10 238 22L 238 52C 238 52 238 64 226 64L 22 64C 22 64 10 64 10 52L 10 22C 10 22 10 10 22 10"></path></g></g></g><g id="g-root-ro_mbqgiwrsxvda-fill" data-item-order="-12312" transform="translate(78, 524)"><g id="ro_mbqgiwrsxvda-fill" stroke="none" fill="#ffeceb"><g><path d="M 22 10L 226 10C 226 10 238 10 238 22L 238 52C 238 52 238 64 226 64L 22 64C 22 64 10 64 10 52L 10 22C 10 22 10 10 22 10"></path></g></g></g><g id="g-root-ro_m9uy3srtahou-fill" data-item-order="-12312" transform="translate(482, 392)"><g id="ro_m9uy3srtahou-fill" stroke="none" fill="#fffbda"><g><path d="M 22 10L 226 10C 226 10 238 10 238 22L 238 52C 238 52 238 64 226 64L 22 64C 22 64 10 64 10 52L 10 22C 10 22 10 10 22 10"></path></g></g></g><g id="g-root-ro_1lrsl60rswi6a-fill" data-item-order="-11664" transform="translate(14, 236)"><g id="ro_1lrsl60rswi6a-fill" stroke="none" fill="#e3fff2"><g><path d="M 22 10L 214 10C 214 10 226 10 226 22L 226 52C 226 52 226 64 214 64L 22 64C 22 64 10 64 10 52L 10 22C 10 22 10 10 22 10"></path></g></g></g><g id="g-root-ro_94n9rcrsqvbg-fill" data-item-order="-11016" transform="translate(406, 140)"><g id="ro_94n9rcrsqvbg-fill" stroke="none" fill="#e8f9ff"><g><path d="M 22 10L 202 10C 202 10 214 10 214 22L 214 52C 214 52 214 64 202 64L 22 64C 22 64 10 64 10 52L 10 22C 10 22 10 10 22 10"></path></g></g></g><g id="g-root-ro_quoc2wrswidc-fill" data-item-order="-10368" transform="translate(38, 410)"><g id="ro_quoc2wrswidc-fill" stroke="none" fill="#edf4ff"><g><path d="M 22 10L 190 10C 190 10 202 10 202 22L 202 52C 202 52 202 64 190 64L 22 64C 22 64 10 64 10 52L 10 22C 10 22 10 10 22 10"></path></g></g></g><g id="g-root-ro_v3mj3crt94i0-fill" data-item-order="-10368" transform="translate(482, 254)"><g id="ro_v3mj3crt94i0-fill" stroke="none" fill="#faf0ff"><g><path d="M 22 10L 190 10C 190 10 202 10 202 22L 202 52C 202 52 202 64 190 64L 22 64C 22 64 10 64 10 52L 10 22C 10 22 10 10 22 10"></path></g></g></g><g id="g-root-ro_1lza71krtby14-fill" data-item-order="-9072" transform="translate(406, 506)"><g id="ro_1lza71krtby14-fill" stroke="none" fill="#f4ffdc"><g><path d="M 22 10L 166 10C 166 10 178 10 178 22L 178 52C 178 52 178 64 166 64L 22 64C 22 64 10 64 10 52L 10 22C 10 22 10 10 22 10"></path></g></g></g><g id="g-root-cu_147dsmgrsxx4y-fill" data-item-order="0" transform="translate(382, 167)"></g><g id="g-root-cu_1cuwmqwrsz9xr-fill" data-item-order="0" transform="translate(430, 194)"></g><g id="g-root-tx_gemini_1q7m3agrsv403-fill" data-item-order="0" transform="translate(454, 206)"><g id="tx_gemini_1q7m3agrsv403-fill" stroke="none" fill="#484848"><g><text style="font: 20px Roboto, sans-serif; white-space: pre;" font-size="20px" font-family="Roboto, sans-serif"><tspan x="12" y="33.5" dominant-baseline="ideographic">Gemini</tspan></text></g></g></g><g id="g-root-cu_1lqjmzsrsz950-fill" data-item-order="0" transform="translate(264, 176)"></g><g id="g-root-cu_18f34mgrszaq2-fill" data-item-order="0" transform="translate(266, 692)"></g><g id="g-root-cu_dj7tpkrsxxcd-fill" data-item-order="0" transform="translate(230, 263)"></g><g id="g-root-tx_gemini_m8m33crsv3ey-fill" data-item-order="0" transform="translate(186, 188)"><g id="tx_gemini_m8m33crsv3ey-fill" stroke="none" fill="#484848"><g><text style="font: 20px Roboto, sans-serif; white-space: pre;" font-size="20px" font-family="Roboto, sans-serif"><tspan x="17.46" y="33.5" dominant-baseline="ideographic">Gemini</tspan></text></g></g></g><g id="g-root-cu_940so8rsxuyw-fill" data-item-order="0" transform="translate(434, 281)"></g><g id="g-root-tx_gemini_14151rcrsv37w-fill" data-item-order="0" transform="translate(290, 704)"><g id="tx_gemini_14151rcrsv37w-fill" stroke="none" fill="#484848"><g><text style="font: 20px Roboto, sans-serif; white-space: pre;" font-size="20px" font-family="Roboto, sans-serif"><tspan x="12" y="33.5" dominant-baseline="ideographic">Gemini</tspan></text></g></g></g><g id="g-root-cu_1q5qo14rszbih-fill" data-item-order="0" transform="translate(430, 560)"></g><g id="g-root-tx_gemini_zk2lgorstog3-fill" data-item-order="0" transform="translate(110, 302)"><g id="tx_gemini_zk2lgorstog3-fill" stroke="none" fill="#484848"><g><text style="font: 20px Roboto, sans-serif; white-space: pre;" font-size="20px" font-family="Roboto, sans-serif"><tspan x="17.46" y="33.5" dominant-baseline="ideographic">Gemini</tspan></text></g></g></g><g id="g-root-cu_qwjrc8rsxvk8-fill" data-item-order="0" transform="translate(188, 290)"></g><g id="g-root-cu_mgq97srsxwcj-fill" data-item-order="0" transform="translate(188, 290)"></g><g id="g-root-tx_gemini_94n9rcrstmv4-fill" data-item-order="0" transform="translate(186, 590)"><g id="tx_gemini_94n9rcrstmv4-fill" stroke="none" fill="#484848"><g><text style="font: 20px Roboto, sans-serif; white-space: pre;" font-size="20px" font-family="Roboto, sans-serif"><tspan x="17.46" y="33.5" dominant-baseline="ideographic">Gemini</tspan></text></g></g></g><g id="g-root-cu_dl38ywrsxx59-fill" data-item-order="0" transform="translate(506, 308)"></g><g id="g-root-tx_chatgpt_mdlvs8rstpfp-fill" data-item-order="0" transform="translate(530, 320)"><g id="tx_chatgpt_mdlvs8rstpfp-fill" stroke="none" fill="#484848"><g><text style="font: 20px Roboto, sans-serif; white-space: pre;" font-size="20px" font-family="Roboto, sans-serif"><tspan x="12" y="33.5" dominant-baseline="ideographic">ChatGPT</tspan></text></g></g></g><g id="g-root-tx_chatgpt_1lsf294rstngs-fill" data-item-order="0" transform="translate(98, 338)"><g id="tx_chatgpt_1lsf294rstngs-fill" stroke="none" fill="#484848"><g><text style="font: 20px Roboto, sans-serif; white-space: pre;" font-size="20px" font-family="Roboto, sans-serif"><tspan x="12.37" y="33.5" dominant-baseline="ideographic">ChatGPT</tspan></text></g></g></g><g id="g-root-cu_1ulk65krszaq6-fill" data-item-order="0" transform="translate(264, 578)"></g><g id="g-root-cu_1utoca0rsxwcu-fill" data-item-order="0" transform="translate(230, 397)"></g><g id="g-root-cu_4o7ajsrsxvr7-fill" data-item-order="0" transform="translate(434, 397)"></g><g id="g-root-tx_gemini_14809pkrsto8x-fill" data-item-order="0" transform="translate(454, 572)"><g id="tx_gemini_14809pkrsto8x-fill" stroke="none" fill="#484848"><g><text style="font: 20px Roboto, sans-serif; white-space: pre;" font-size="20px" font-family="Roboto, sans-serif"><tspan x="12" y="33.5" dominant-baseline="ideographic">Gemini</tspan></text></g></g></g><g id="g-root-cu_1lynt48rsxurl-fill" data-item-order="0" transform="translate(306, 455)"></g><g id="g-root-cu_vcd9gorsxurx-fill" data-item-order="0" transform="translate(356, 455)"></g><g id="g-root-cu_1d30svcrsxvkc-fill" data-item-order="0" transform="translate(382, 455)"></g><g id="g-root-cu_8vwmjsrsz9c8-fill" data-item-order="0" transform="translate(506, 446)"></g><g id="g-root-cu_4g34fcrsza4j-fill" data-item-order="0" transform="translate(188, 464)"></g><g id="g-root-tx_gemini_1lxeuy0rstmvi-fill" data-item-order="0" transform="translate(530, 458)"><g id="tx_gemini_1lxeuy0rstmvi-fill" stroke="none" fill="#484848"><g><text style="font: 20px Roboto, sans-serif; white-space: pre;" font-size="20px" font-family="Roboto, sans-serif"><tspan x="12" y="33.5" dominant-baseline="ideographic">Gemini</tspan></text></g></g></g><g id="g-root-tx_gemini_vb4bagrstmvj-fill" data-item-order="0" transform="translate(110, 476)"><g id="tx_gemini_vb4bagrstmvj-fill" stroke="none" fill="#484848"><g><text style="font: 20px Roboto, sans-serif; white-space: pre;" font-size="20px" font-family="Roboto, sans-serif"><tspan x="17.46" y="33.5" dominant-baseline="ideographic">Gemini</tspan></text></g></g></g><g id="g-root-cu_18n7aqwrsxwcn-fill" data-item-order="0" transform="translate(306, 149)"></g><g id="g-root-tx_ai_v493c8rsz959-fill" data-item-order="0" transform="translate(182, 38)"><g id="tx_ai_v493c8rsz959-fill" stroke="none" fill="#484848"><g><text style="font: bold 25px Roboto, sans-serif; white-space: pre;" font-weight="bold" font-size="25px" font-family="Roboto, sans-serif"><tspan x="12.34" y="45.5" dominant-baseline="ideographic">AI 模型助理在專案管理中的應用</tspan></text></g></g></g><g id="g-root-tx_prompt_1haq4vcrswgsg-fill" data-item-order="1000000000" transform="translate(26, 251)"><g id="tx_prompt_1haq4vcrswgsg-fill" stroke="none" fill="#3cc583"><g><text style="font: 20px Roboto, sans-serif; white-space: pre;" font-size="20px" font-family="Roboto, sans-serif"><tspan x="14.51" y="33.5" dominant-baseline="ideographic">生出各種 prompt</tspan></text></g></g></g><g id="g-root-ic_alte_4hyjoorswg09-fill" data-item-order="1000000000" transform="translate(188, 248)"></g><g id="g-root-ic_writ_18f31gort92x3-fill" data-item-order="1000000000" transform="translate(494, 266)"></g><g id="g-root-tx__18mktnsrsquiq-fill" data-item-order="1000000000" transform="translate(454, 155)"><g id="tx__18mktnsrsquiq-fill" stroke="none" fill="#1eabda"><g><text style="font: 20px Roboto, sans-serif; white-space: pre;" font-size="20px" font-family="Roboto, sans-serif"><tspan x="12" y="33.5" dominant-baseline="ideographic">專案功能規格書</tspan></text></g></g></g><g id="g-root-tx__9j54rt9346-fill" data-item-order="1000000000" transform="translate(530, 269)"><g id="tx__9j54rt9346-fill" stroke="none" fill="#ba5de5"><g><text style="font: 20px Roboto, sans-serif; white-space: pre;" font-size="20px" font-family="Roboto, sans-serif"><tspan x="12" y="33.5" dominant-baseline="ideographic">專案章程文件</tspan></text></g></g></g><g id="g-root-ic_mana_8x5hk8rt7qbn-fill" data-item-order="1000000000" transform="translate(332, 305)"></g><g id="g-root-tx_ai_zjg17srt7qbm-fill" data-item-order="1000000000" transform="translate(302, 359)"><g id="tx_ai_zjg17srt7qbm-fill" stroke="none" fill="#a3a3a3"><g><text style="font: 20px Roboto, sans-serif; white-space: pre;" font-size="20px" font-family="Roboto, sans-serif"><tspan x="12.27" y="33.5" dominant-baseline="ideographic">AI 模型助理</tspan><tspan x="14" y="57.5" dominant-baseline="ideographic">在專案管理</tspan><tspan x="24" y="81.5" dominant-baseline="ideographic">中的應用</tspan></text></g></g></g><g id="g-root-ic_docu_mg3s4orsqtqj-fill" data-item-order="1000000000" transform="translate(418, 152)"></g><g id="g-root-ic_1_v4vh9krtak1x-fill" data-item-order="1000000000" transform="translate(494, 404)"></g><g id="g-root-tx__1lwsduwrswhl2-fill" data-item-order="1000000000" transform="translate(50, 425)"><g id="tx__1lwsduwrswhl2-fill" stroke="none" fill="#4e88e7"><g><text style="font: 20px Roboto, sans-serif; white-space: pre;" font-size="20px" font-family="Roboto, sans-serif"><tspan x="20" y="33.5" dominant-baseline="ideographic">專案分析報告</tspan></text></g></g></g><g id="g-root-ic_view_zqbcbsrswgsv-fill" data-item-order="1000000000" transform="translate(188, 422)"></g><g id="g-root-tx__18gbzmwrtaih0-fill" data-item-order="1000000000" transform="translate(530, 407)"><g id="tx__18gbzmwrtaih0-fill" stroke="none" fill="#e0cb15"><g><text style="font: 20px Roboto, sans-serif; white-space: pre;" font-size="20px" font-family="Roboto, sans-serif"><tspan x="12" y="33.5" dominant-baseline="ideographic">常見用戶需求清單</tspan></text></g></g></g><g id="g-root-ic_grap_1d15dm0rsxwjn-fill" data-item-order="1000000000" transform="translate(264, 134)"></g><g id="g-root-ic_writ_1lxers8rtbz0v-fill" data-item-order="1000000000" transform="translate(418, 518)"></g><g id="g-root-tx__93e8fcrtbwue-fill" data-item-order="1000000000" transform="translate(454, 521)"><g id="tx__93e8fcrtbwue-fill" stroke="none" fill="#92bd39"><g><text style="font: 20px Roboto, sans-serif; white-space: pre;" font-size="20px" font-family="Roboto, sans-serif"><tspan x="12" y="33.5" dominant-baseline="ideographic">專案企劃書</tspan></text></g></g></g><g id="g-root-tx__1lto0fcrsxukk-fill" data-item-order="1000000000" transform="translate(90, 539)"><g id="tx__1lto0fcrsxukk-fill" stroke="none" fill="#e55753"><g><text style="font: 20px Roboto, sans-serif; white-space: pre;" font-size="20px" font-family="Roboto, sans-serif"><tspan x="16" y="33.5" dominant-baseline="ideographic">工作與資源分解表</tspan></text></g></g></g><g id="g-root-ic_sync_zmkht4rsxwy5-fill" data-item-order="1000000000" transform="translate(264, 536)"></g><g id="g-root-tx__1ursx0orsxxca-fill" data-item-order="1000000000" transform="translate(54, 137)"><g id="tx__1ursx0orsxxca-fill" stroke="none" fill="#de58a9"><g><text style="font: 20px Roboto, sans-serif; white-space: pre;" font-size="20px" font-family="Roboto, sans-serif"><tspan x="12" y="33.5" dominant-baseline="ideographic">專案任務規劃與儀表板</tspan></text></g></g></g><g id="g-root-ic_modu_m7d4x4rstnux-fill" data-item-order="1000000000" transform="translate(254, 650)"></g><g id="g-root-tx__18ntru0rssa2o-fill" data-item-order="1000000000" transform="translate(290, 653)"><g id="tx__18ntru0rssa2o-fill" stroke="none" fill="#de8431"><g><text style="font: 20px Roboto, sans-serif; white-space: pre;" font-size="20px" font-family="Roboto, sans-serif"><tspan x="12" y="33.5" dominant-baseline="ideographic">互動系統雛形網站</tspan></text></g></g></g><g id="g-root-ro_1unfi94rt7ojo-stroke" data-item-order="-27144" transform="translate(278, 281)"><g id="ro_1unfi94rt7ojo-stroke" fill="none" stroke-linecap="round" stroke-linejoin="round" stroke-miterlimit="4" stroke="#a3a3a3" stroke-width="2"><g><path d="M 34 10L 142 10C 142 10 166 10 166 34L 166 160C 166 160 166 184 142 184L 34 184C 34 184 10 184 10 160L 10 34C 10 34 10 10 34 10"></path></g></g></g><g id="g-root-ro_zqbcbsrsxuys-stroke" data-item-order="-14256" transform="translate(42, 122)"><g id="ro_zqbcbsrsxuys-stroke" fill="none" stroke-linecap="round" stroke-linejoin="round" stroke-miterlimit="4" stroke="#de58a9" stroke-width="2"><g><path d="M 22 10L 262 10C 262 10 274 10 274 22L 274 52C 274 52 274 64 262 64L 22 64C 22 64 10 64 10 52L 10 22C 10 22 10 10 22 10"></path></g></g></g><g id="g-root-ro_1q6d548rstog2-stroke" data-item-order="-12312" transform="translate(242, 638)"><g id="ro_1q6d548rstog2-stroke" fill="none" stroke-linecap="round" stroke-linejoin="round" stroke-miterlimit="4" stroke="#de8431" stroke-width="2"><g><path d="M 22 10L 226 10C 226 10 238 10 238 22L 238 52C 238 52 238 64 226 64L 22 64C 22 64 10 64 10 52L 10 22C 10 22 10 10 22 10"></path></g></g></g><g id="g-root-ro_mbqgiwrsxvda-stroke" data-item-order="-12312" transform="translate(78, 524)"><g id="ro_mbqgiwrsxvda-stroke" fill="none" stroke-linecap="round" stroke-linejoin="round" stroke-miterlimit="4" stroke="#e55753" stroke-width="2"><g><path d="M 22 10L 226 10C 226 10 238 10 238 22L 238 52C 238 52 238 64 226 64L 22 64C 22 64 10 64 10 52L 10 22C 10 22 10 10 22 10"></path></g></g></g><g id="g-root-ro_m9uy3srtahou-stroke" data-item-order="-12312" transform="translate(482, 392)"><g id="ro_m9uy3srtahou-stroke" fill="none" stroke-linecap="round" stroke-linejoin="round" stroke-miterlimit="4" stroke="#e0cb15" stroke-width="2"><g><path d="M 22 10L 226 10C 226 10 238 10 238 22L 238 52C 238 52 238 64 226 64L 22 64C 22 64 10 64 10 52L 10 22C 10 22 10 10 22 10"></path></g></g></g><g id="g-root-ro_1lrsl60rswi6a-stroke" data-item-order="-11664" transform="translate(14, 236)"><g id="ro_1lrsl60rswi6a-stroke" fill="none" stroke-linecap="round" stroke-linejoin="round" stroke-miterlimit="4" stroke="#3cc583" stroke-width="2"><g><path d="M 22 10L 214 10C 214 10 226 10 226 22L 226 52C 226 52 226 64 214 64L 22 64C 22 64 10 64 10 52L 10 22C 10 22 10 10 22 10"></path></g></g></g><g id="g-root-ro_94n9rcrsqvbg-stroke" data-item-order="-11016" transform="translate(406, 140)"><g id="ro_94n9rcrsqvbg-stroke" fill="none" stroke-linecap="round" stroke-linejoin="round" stroke-miterlimit="4" stroke="#1eabda" stroke-width="2"><g><path d="M 22 10L 202 10C 202 10 214 10 214 22L 214 52C 214 52 214 64 202 64L 22 64C 22 64 10 64 10 52L 10 22C 10 22 10 10 22 10"></path></g></g></g><g id="g-root-ro_quoc2wrswidc-stroke" data-item-order="-10368" transform="translate(38, 410)"><g id="ro_quoc2wrswidc-stroke" fill="none" stroke-linecap="round" stroke-linejoin="round" stroke-miterlimit="4" stroke="#4e88e7" stroke-width="2"><g><path d="M 22 10L 190 10C 190 10 202 10 202 22L 202 52C 202 52 202 64 190 64L 22 64C 22 64 10 64 10 52L 10 22C 10 22 10 10 22 10"></path></g></g></g><g id="g-root-ro_v3mj3crt94i0-stroke" data-item-order="-10368" transform="translate(482, 254)"><g id="ro_v3mj3crt94i0-stroke" fill="none" stroke-linecap="round" stroke-linejoin="round" stroke-miterlimit="4" stroke="#ba5de5" stroke-width="2"><g><path d="M 22 10L 190 10C 190 10 202 10 202 22L 202 52C 202 52 202 64 190 64L 22 64C 22 64 10 64 10 52L 10 22C 10 22 10 10 22 10"></path></g></g></g><g id="g-root-ro_1lza71krtby14-stroke" data-item-order="-9072" transform="translate(406, 506)"><g id="ro_1lza71krtby14-stroke" fill="none" stroke-linecap="round" stroke-linejoin="round" stroke-miterlimit="4" stroke="#92bd39" stroke-width="2"><g><path d="M 22 10L 166 10C 166 10 178 10 178 22L 178 52C 178 52 178 64 166 64L 22 64C 22 64 10 64 10 52L 10 22C 10 22 10 10 22 10"></path></g></g></g><g id="g-root-cu_147dsmgrsxx4y-stroke" data-item-order="0" transform="translate(382, 167)"><g id="cu_147dsmgrsxx4y-stroke" fill="none" stroke-linecap="round" stroke-linejoin="round" stroke-miterlimit="4" stroke="#969696" stroke-width="2" stroke-dasharray="5.0, 7.0"><g><path d="M 10 124L 10 109.8L 10 30.9C 10 19.357248 19.357248 10 30.899998 10L 31 10L 34 10"></path></g></g></g><g id="g-root-cu_1cuwmqwrsz9xr-stroke" data-item-order="0" transform="translate(430, 194)"><g id="cu_1cuwmqwrsz9xr-stroke" fill="none" stroke-linecap="round" stroke-linejoin="round" stroke-miterlimit="4" stroke="#969696" stroke-width="2" stroke-dasharray="5.0, 7.0"><g><path d="M 10 10L 10 13L 10 22C 10 28.627416 15.372583 33.999999 22 33.999999L 22.1 34L 28 34"></path></g></g></g><g id="g-root-tx_gemini_1q7m3agrsv403-stroke" data-item-order="0" transform="translate(454, 206)"></g><g id="g-root-cu_1lqjmzsrsz950-stroke" data-item-order="0" transform="translate(264, 176)"><g id="cu_1lqjmzsrsz950-stroke" fill="none" stroke-linecap="round" stroke-linejoin="round" stroke-miterlimit="4" stroke="#969696" stroke-width="2" stroke-dasharray="5.0, 7.0"><g><path d="M 28 10L 28 13L 28 22C 27.999999 28.627417 22.627416 34 15.999999 34L 15.9 34L 10 34"></path></g></g></g><g id="g-root-cu_18f34mgrszaq2-stroke" data-item-order="0" transform="translate(266, 692)"><g id="cu_18f34mgrszaq2-stroke" fill="none" stroke-linecap="round" stroke-linejoin="round" stroke-miterlimit="4" stroke="#969696" stroke-width="2" stroke-dasharray="5.0, 7.0"><g><path d="M 10 10L 10 13L 10 22C 10 28.627416 15.372583 33.999999 22 33.999999L 22.1 34L 28 34"></path></g></g></g><g id="g-root-cu_dj7tpkrsxxcd-stroke" data-item-order="0" transform="translate(230, 263)"><g id="cu_dj7tpkrsxxcd-stroke" fill="none" stroke-linecap="round" stroke-linejoin="round" stroke-miterlimit="4" stroke="#969696" stroke-width="2" stroke-dasharray="5.0, 7.0"><g><path d="M 58 86L 55 86L 54.9 86C 43.357247 86.000005 33.999999 76.642755 33.999999 65.100003L 34 65L 34 30.9C 33.999998 19.357248 24.64275 10 13.1 10L 13 10L 10 10"></path></g></g></g><g id="g-root-tx_gemini_m8m33crsv3ey-stroke" data-item-order="0" transform="translate(186, 188)"></g><g id="g-root-cu_940so8rsxuyw-stroke" data-item-order="0" transform="translate(434, 281)"><g id="cu_940so8rsxuyw-stroke" fill="none" stroke-linecap="round" stroke-linejoin="round" stroke-miterlimit="4" stroke="#969696" stroke-width="2" stroke-dasharray="5.0, 7.0"><g><path d="M 10 68L 13 68L 13.1 68C 24.642753 67.999998 34.000001 58.642749 34.000001 47.099998L 34 47L 34 30.9C 33.999999 19.357249 43.357248 10.000001 54.899999 10.000002L 55 10L 58 10"></path></g></g></g><g id="g-root-tx_gemini_14151rcrsv37w-stroke" data-item-order="0" transform="translate(290, 704)"></g><g id="g-root-cu_1q5qo14rszbih-stroke" data-item-order="0" transform="translate(430, 560)"><g id="cu_1q5qo14rszbih-stroke" fill="none" stroke-linecap="round" stroke-linejoin="round" stroke-miterlimit="4" stroke="#969696" stroke-width="2" stroke-dasharray="5.0, 7.0"><g><path d="M 10 10L 10 13L 10 22C 10 28.627416 15.372583 33.999999 22 33.999999L 22.1 34L 28 34"></path></g></g></g><g id="g-root-tx_gemini_zk2lgorstog3-stroke" data-item-order="0" transform="translate(110, 302)"></g><g id="g-root-cu_qwjrc8rsxvk8-stroke" data-item-order="0" transform="translate(188, 290)"><g id="cu_qwjrc8rsxvk8-stroke" fill="none" stroke-linecap="round" stroke-linejoin="round" stroke-miterlimit="4" stroke="#969696" stroke-width="2" stroke-dasharray="5.0, 7.0"><g><path d="M 28 10L 28 22L 28 34L 19 34L 10 34"></path></g></g></g><g id="g-root-cu_mgq97srsxwcj-stroke" data-item-order="0" transform="translate(188, 290)"><g id="cu_mgq97srsxwcj-stroke" fill="none" stroke-linecap="round" stroke-linejoin="round" stroke-miterlimit="4" stroke="#969696" stroke-width="2" stroke-dasharray="5.0, 7.0"><g><path d="M 28 10L 28 17.5L 28 58C 27.999999 64.627415 22.627416 69.999998 16 69.999998L 15.9 70L 10 70"></path></g></g></g><g id="g-root-tx_gemini_94n9rcrstmv4-stroke" data-item-order="0" transform="translate(186, 590)"></g><g id="g-root-cu_dl38ywrsxx59-stroke" data-item-order="0" transform="translate(506, 308)"><g id="cu_dl38ywrsxx59-stroke" fill="none" stroke-linecap="round" stroke-linejoin="round" stroke-miterlimit="4" stroke="#969696" stroke-width="2" stroke-dasharray="5.0, 7.0"><g><path d="M 10 10L 10 13L 10 22C 10 28.627416 15.372583 33.999999 22 33.999999L 22.1 34L 28 34"></path></g></g></g><g id="g-root-tx_chatgpt_mdlvs8rstpfp-stroke" data-item-order="0" transform="translate(530, 320)"></g><g id="g-root-tx_chatgpt_1lsf294rstngs-stroke" data-item-order="0" transform="translate(98, 338)"></g><g id="g-root-cu_1ulk65krszaq6-stroke" data-item-order="0" transform="translate(264, 578)"><g id="cu_1ulk65krszaq6-stroke" fill="none" stroke-linecap="round" stroke-linejoin="round" stroke-miterlimit="4" stroke="#969696" stroke-width="2" stroke-dasharray="5.0, 7.0"><g><path d="M 28 10L 28 13L 28 22C 27.999999 28.627417 22.627416 34 15.999999 34L 15.9 34L 10 34"></path></g></g></g><g id="g-root-cu_1utoca0rsxwcu-stroke" data-item-order="0" transform="translate(230, 397)"><g id="cu_1utoca0rsxwcu-stroke" fill="none" stroke-linecap="round" stroke-linejoin="round" stroke-miterlimit="4" stroke="#969696" stroke-width="2" stroke-dasharray="5.0, 7.0"><g><path d="M 58 10L 55 10L 54.9 10C 50.052934 9.989846 44.901613 12.050374 40.399999 15.799999C 37.708039 18.074727 35.360043 23.284343 33.999999 30.000002C 32.639955 36.71566 30.291959 41.925276 27.599999 44.200003C 23.098386 47.949624 17.947065 50.010152 13.1 49.999999L 13 50L 10 50"></path></g></g></g><g id="g-root-cu_4o7ajsrsxvr7-stroke" data-item-order="0" transform="translate(434, 397)"><g id="cu_4o7ajsrsxvr7-stroke" fill="none" stroke-linecap="round" stroke-linejoin="round" stroke-miterlimit="4" stroke="#969696" stroke-width="2" stroke-dasharray="5.0, 7.0"><g><path d="M 10 10L 13 10L 13.1 10C 16.80425 9.995053 20.850745 10.98953 24.9 12.899999C 27.334685 14.065414 30.583604 16.957308 34.000002 20.999998C 37.416401 25.042688 40.66532 27.934583 43.100003 29.099997C 47.149255 31.010465 51.19575 32.004943 54.9 31.999996L 55 32L 58 32"></path></g></g></g><g id="g-root-tx_gemini_14809pkrsto8x-stroke" data-item-order="0" transform="translate(454, 572)"></g><g id="g-root-cu_1lynt48rsxurl-stroke" data-item-order="0" transform="translate(306, 455)"><g id="cu_1lynt48rsxurl-stroke" fill="none" stroke-linecap="round" stroke-linejoin="round" stroke-miterlimit="4" stroke="#969696" stroke-width="2" stroke-dasharray="5.0, 7.0"><g><path d="M 34 10L 34 22L 34 85.1C 33.999999 96.642754 24.642749 106.000003 13.099997 106.000002L 13 106L 10 106"></path></g></g></g><g id="g-root-cu_vcd9gorsxurx-stroke" data-item-order="0" transform="translate(356, 455)"><g id="cu_vcd9gorsxurx-stroke" fill="none" stroke-linecap="round" stroke-linejoin="round" stroke-miterlimit="4" stroke="#969696" stroke-width="2" stroke-dasharray="5.0, 7.0"><g><path d="M 10 10L 10 101.5L 10 193"></path></g></g></g><g id="g-root-cu_1d30svcrsxvkc-stroke" data-item-order="0" transform="translate(382, 455)"><g id="cu_1d30svcrsxvkc-stroke" fill="none" stroke-linecap="round" stroke-linejoin="round" stroke-miterlimit="4" stroke="#969696" stroke-width="2" stroke-dasharray="5.0, 7.0"><g><path d="M 10 10L 10 19.8L 10 67.1C 10 78.642752 19.357249 88 30.9 88L 31 88L 34 88"></path></g></g></g><g id="g-root-cu_8vwmjsrsz9c8-stroke" data-item-order="0" transform="translate(506, 446)"><g id="cu_8vwmjsrsz9c8-stroke" fill="none" stroke-linecap="round" stroke-linejoin="round" stroke-miterlimit="4" stroke="#969696" stroke-width="2" stroke-dasharray="5.0, 7.0"><g><path d="M 10 10L 10 13L 10 22C 10 28.627416 15.372583 33.999999 22 33.999999L 22.1 34L 28 34"></path></g></g></g><g id="g-root-cu_4g34fcrsza4j-stroke" data-item-order="0" transform="translate(188, 464)"><g id="cu_4g34fcrsza4j-stroke" fill="none" stroke-linecap="round" stroke-linejoin="round" stroke-miterlimit="4" stroke="#969696" stroke-width="2" stroke-dasharray="5.0, 7.0"><g><path d="M 28 10L 28 13L 28 22C 27.999999 28.627417 22.627416 34 15.999999 34L 15.9 34L 10 34"></path></g></g></g><g id="g-root-tx_gemini_1lxeuy0rstmvi-stroke" data-item-order="0" transform="translate(530, 458)"></g><g id="g-root-tx_gemini_vb4bagrstmvj-stroke" data-item-order="0" transform="translate(110, 476)"></g><g id="g-root-cu_18n7aqwrsxwcn-stroke" data-item-order="0" transform="translate(306, 149)"><g id="cu_18n7aqwrsxwcn-stroke" fill="none" stroke-linecap="round" stroke-linejoin="round" stroke-miterlimit="4" stroke="#969696" stroke-width="2" stroke-dasharray="5.0, 7.0"><g><path d="M 34 142L 34 125.5L 34 30.9C 33.999998 19.357248 24.64275 10 13.1 10L 13 10L 10 10"></path></g></g></g><g id="g-root-tx_ai_v493c8rsz959-stroke" data-item-order="0" transform="translate(182, 38)"></g><g id="g-root-tx_prompt_1haq4vcrswgsg-stroke" data-item-order="1000000000" transform="translate(26, 251)"></g><g id="g-root-ic_alte_4hyjoorswg09-stroke" data-item-order="1000000000" transform="translate(188, 248)"><g id="ic_alte_4hyjoorswg09-stroke" fill="none" stroke-linecap="round" stroke-linejoin="round" stroke-miterlimit="4" stroke="#3cc583" stroke-width="2"><g><path d="M 39.425003 22.275C 39.425003 22.447588 39.285091 22.5875 39.112503 22.5875C 39.020012 22.598244 38.927361 22.56881 38.85804 22.506655C 38.788715 22.444504 38.749374 22.355602 38.749996 22.262499C 38.762619 22.097534 38.897156 21.96838 39.062496 21.9625C 39.153637 21.94772 39.246639 21.973995 39.31657 22.034279C 39.386497 22.094563 39.426189 22.182682 39.425003 22.275ZM 24.575001 34.674999C 24.20171 34.975452 23.778641 35.208141 23.325001 35.362503C 22.155691 35.779804 20.865747 35.694027 19.761992 35.125572C 18.658234 34.55711 17.839308 33.556778 17.5 32.362499C 17.420591 32.059135 17.366241 31.749763 17.3375 31.4375C 17.3375 31.1875 17.3375 31.25 17.125 31.199999C 15.729791 30.944778 14.574072 29.96979 14.0875 28.637501C 13.442947 27.096046 13.804638 25.317322 15 24.150002C 15.033594 24.117085 15.052526 24.072033 15.052526 24.025C 15.052526 23.977968 15.033594 23.932917 15 23.9C 14.487867 22.986084 14.366273 21.904156 14.662769 20.899361C 14.959266 19.894569 15.648752 19.051973 16.574999 18.5625C 16.963482 18.355614 17.387615 18.224131 17.824999 18.174999C 17.932198 18.159927 18.022961 18.088272 18.0625 17.987499C 18.701696 16.411442 20.004461 15.198241 21.621979 14.672729C 23.239498 14.147216 25.006546 14.363071 26.450001 15.2625C 26.531853 15.306956 26.630646 15.306956 26.7125 15.2625C 28.752958 14.573216 31.006844 15.226444 32.362499 16.9C 33.150341 17.875418 33.542946 19.111237 33.462502 20.362499C 33.462502 20.475 33.462502 20.525 33.599998 20.5625C 34.360302 20.818607 34.975853 21.385902 35.293037 22.12282C 35.610222 22.859735 35.599117 23.696756 35.262501 24.424999C 35.096661 24.775705 34.862999 25.090088 34.575001 25.35C 34.548096 25.37373 34.532681 25.407875 34.532681 25.44375C 34.532681 25.479626 34.548096 25.513771 34.575001 25.5375C 35.108765 26.433222 35.349144 27.473408 35.262497 28.512501C 35.052673 30.8972 33.138351 32.774399 30.75 32.9375L 30.287498 32.9375C 30.200001 32.9375 30.162498 32.9375 30.137501 33.049999C 29.784729 34.340874 28.689894 35.292694 27.362501 35.462502C 26.423246 35.586266 25.475218 35.30957 24.75 34.700001C 24.729504 34.694706 24.707998 34.694706 24.6875 34.700001ZM 33.950001 36.25C 33.950001 36.940353 33.390354 37.5 32.700001 37.5C 32.009644 37.5 31.450001 36.940353 31.450001 36.25C 31.450001 35.559647 32.009644 35 32.700001 35C 33.390354 35 33.950001 35.559647 33.950001 36.25ZM 11.5125 22.5875C 11.870966 22.5459 12.221487 22.713743 12.413821 23.019089C 12.606156 23.324434 12.606156 23.713068 12.413821 24.018414C 12.221487 24.323757 11.870966 24.4916 11.5125 24.450001C 11.039717 24.395134 10.683072 23.994707 10.683072 23.518751C 10.683072 23.042793 11.039717 22.642366 11.5125 22.587502ZM 26.825001 13.3375C 26.577517 13.340845 26.339014 13.244868 26.16283 13.071033C 25.986649 12.897198 25.887478 12.660007 25.887501 12.4125C 25.880753 12.162872 25.97522 11.921121 26.149427 11.742205C 26.323635 11.563288 26.562782 11.462409 26.8125 11.4625C 27.332327 11.462455 27.755659 11.880218 27.762501 12.4C 27.762501 12.917768 27.342768 13.3375 26.825001 13.3375ZM 34.912498 18.5375C 34.912498 18.019733 35.332233 17.6 35.849998 17.6C 36.367767 17.6 36.787498 18.019733 36.787498 18.5375C 36.787498 19.055267 36.367767 19.475 35.849998 19.475C 35.332233 19.475 34.912498 19.055267 34.912498 18.5375ZM 15.612499 15.825C 15.612361 15.65813 15.680312 15.498425 15.800644 15.382813C 15.920975 15.2672 16.083267 15.205689 16.25 15.2125C 16.590355 15.212432 16.868193 15.484714 16.875 15.825C 16.862619 16.167044 16.59173 16.44335 16.25 16.4625C 15.897919 16.4625 15.612499 16.177082 15.612499 15.825ZM 25.725 38.025002C 25.725 38.370178 25.445177 38.650002 25.1 38.650002C 24.757614 38.643349 24.481649 38.367386 24.475 38.025002C 24.475 37.679821 24.754822 37.400002 25.1 37.400002C 25.445177 37.400002 25.725 37.679821 25.725 38.025002ZM 38.5 26.137501C 38.5 26.482677 38.220181 26.762501 37.875 26.762501C 37.529823 26.762501 37.25 26.482677 37.25 26.137501C 37.25 25.792322 37.529823 25.512501 37.875 25.512501C 38.220181 25.512501 38.5 25.792322 38.5 26.137501ZM 19.362499 11.35C 19.535089 11.35 19.674999 11.489911 19.674999 11.6625C 19.669117 11.827842 19.539965 11.962378 19.375 11.975C 19.200277 11.975129 19.056719 11.837092 19.049999 11.6625C 19.049999 11.489911 19.189911 11.35 19.362499 11.35ZM 14.7375 33.475002C 14.7375 33.302414 14.877411 33.162502 15.05 33.162502C 15.222589 33.162502 15.3625 33.302414 15.3625 33.475002C 15.353354 33.560646 15.309261 33.638725 15.240638 33.690784C 15.172014 33.742844 15.084946 33.764271 15 33.75C 14.860392 33.728222 14.752767 33.615471 14.7375 33.475002ZM 30.450001 30C 30.678776 29.865294 30.811655 29.612759 30.793116 29.347919C 30.774576 29.08308 30.607811 28.851521 30.362499 28.75L 30.150002 28.6875L 29.2875 28.5375C 28.737499 28.424999 28.512501 28.1625 28.5625 27.6C 28.582602 27.253811 28.654222 26.912558 28.775 26.5875C 29.025 25.875 29.325001 25.1875 29.6 24.487499C 29.875 23.7875 30.2125 23.012501 30.5 22.262501C 30.680275 21.871534 30.724287 21.431421 30.625 21.012499C 30.579178 20.453939 30.220768 19.969601 29.699999 19.762501C 29.05249 19.4848 28.312284 19.526436 27.700001 19.875C 27.527443 20.013184 27.275515 19.985191 27.137501 19.8125C 26.992477 19.665079 26.837982 19.527287 26.674999 19.4C 26.54211 19.334915 26.397688 19.296684 26.25 19.2875C 25.811335 19.177723 25.346626 19.284607 25 19.575001L 24.637501 19.887501L 24.225 20.1875C 24.053553 20.280867 23.846447 20.280867 23.674999 20.1875L 22.5 19.700001C 22.200453 19.55788 21.866089 19.505772 21.537498 19.549999C 20.774038 19.643648 20.107927 20.112741 19.762501 20.800001C 19.529404 21.248556 19.336967 21.717096 19.1875 22.200001C 18.637501 23.887499 18.1 25.5875 17.5875 27.2875C 17.358105 27.920887 17.530476 28.630066 18.025 29.0875C 18.438158 29.502218 19.018494 29.704874 19.6 29.637501C 20.24119 29.546583 20.779753 29.109001 21 28.5C 21.637501 26.900002 23.112499 23.3375 23.112499 23.3375C 23.112499 23.3375 22.4625 24.887501 22.174999 25.637501C 21.975 26.125 21.9125 26.237499 21.7125 26.725C 21.62027 27.107292 21.690125 27.510704 21.905527 27.839725C 22.12093 28.168749 22.462729 28.394125 22.85 28.4625C 23.630735 28.627338 24.421043 28.226984 24.75 27.5C 24.75 27.375 26.3375 24.049999 26.9125 22.924999C 26.9125 22.924999 26.137501 24.700001 25.5 26C 23.887499 29.125 27.675001 31.3375 30.450001 30Z"></path></g></g></g><g id="g-root-ic_writ_18f31gort92x3-stroke" data-item-order="1000000000" transform="translate(494, 266)"><g id="ic_writ_18f31gort92x3-stroke" fill="none" stroke-linecap="round" stroke-linejoin="round" stroke-miterlimit="4" stroke="#ba5de5" stroke-width="2"><g><path d="M 30 38.125L 25.625 39.375L 26.875 35L 35.80875 26.065001C 35.926006 25.947449 36.085217 25.881382 36.251251 25.881382C 36.417282 25.881382 36.576496 25.947449 36.693748 26.065001L 38.93375 28.305C 39.0513 28.422256 39.117367 28.581465 39.117367 28.747499C 39.117367 28.913534 39.0513 29.072744 38.93375 29.190001ZM 33.751251 28.123749L 36.876251 31.248751M 26.875 35.001251L 30 38.126251M 14.375 19.375L 20.625 19.375L 20.625 23.125L 14.375 23.125ZM 14.375 25.625L 20.625 25.625L 20.625 29.375L 14.375 29.375ZM 14.375 31.875L 20.625 31.875L 20.625 35.625L 14.375 35.625ZM 22.5 39.375L 11.875 39.375C 11.184644 39.375 10.625 38.815353 10.625 38.125L 10.625 11.875C 10.625 11.184644 11.184644 10.625 11.875 10.625L 23.8575 10.625C 24.188993 10.625071 24.506884 10.756813 24.741251 10.99125L 31.508751 17.758749C 31.743187 17.993116 31.874928 18.311007 31.875 18.6425L 31.875 26.25M 24.375 10.7375L 24.375 16.875C 24.375 17.565355 24.934643 18.125 25.625 18.125L 31.762501 18.125M 20.625 20.625L 23.125 20.625C 23.815357 20.625 24.375 21.184643 24.375 21.875L 24.375 31.875C 24.375 32.565353 23.815357 33.125 23.125 33.125L 20.625 33.125M 20.625 26.875L 27.5 26.875"></path></g></g></g><g id="g-root-tx__18mktnsrsquiq-stroke" data-item-order="1000000000" transform="translate(454, 155)"></g><g id="g-root-tx__9j54rt9346-stroke" data-item-order="1000000000" transform="translate(530, 269)"></g><g id="g-root-ic_mana_8x5hk8rt7qbn-stroke" data-item-order="1000000000" transform="translate(332, 305)"><g id="ic_mana_8x5hk8rt7qbn-stroke" fill="none" stroke-linecap="round" stroke-linejoin="round" stroke-miterlimit="4" stroke="#a3a3a3" stroke-width="2"><g><path d="M 30 53C 30 55.209141 31.790861 57 34 57C 36.209137 57 38 55.209141 38 53C 38 50.790859 36.209137 49 34 49C 31.790861 49 30 50.790859 30 53M 34 57C 32.387375 56.993229 30.936539 56.018749 30.320332 54.528484C 29.704123 53.038223 30.043077 51.323681 31.18 50.18L 50.18 31.18C 51.76704 29.820892 54.132778 29.912271 55.610252 31.389748C 57.08773 32.867226 57.179108 35.23296 55.82 36.82L 36.82 55.82C 36.073299 56.571175 35.059155 56.995533 34 57ZM 30 15C 30 17.209139 31.790861 19 34 19C 36.209137 19 38 17.209139 38 15C 38 12.790861 36.209137 11 34 11C 31.790861 11 30 12.790861 30 15M 30 34C 30 36.209137 31.790861 38 34 38C 36.209137 38 38 36.209137 38 34C 38 31.790861 36.209137 30 34 30C 31.790861 30 30 31.790861 30 34M 34 11C 35.612625 11.006771 37.063461 11.981252 37.679668 13.471516C 38.295876 14.961779 37.956924 16.676319 36.82 17.82L 17.82 36.82C 16.25985 38.370895 13.740149 38.370895 12.18 36.82C 10.629106 35.25985 10.629106 32.74015 12.18 31.18L 31.18 12.18C 31.926701 11.428824 32.940845 11.004465 34 11ZM 43.5 20.5C 45.112621 20.506771 46.563461 21.481251 47.179668 22.971516C 47.795879 24.461779 47.456924 26.176321 46.32 27.32L 27.32 46.32C 25.73296 47.679108 23.367224 47.58773 21.889748 46.110252C 20.41227 44.632778 20.320892 42.26704 21.68 40.68L 40.68 21.68C 41.426701 20.928825 42.440845 20.504465 43.5 20.5Z"></path></g></g></g><g id="g-root-tx_ai_zjg17srt7qbm-stroke" data-item-order="1000000000" transform="translate(302, 359)"></g><g id="g-root-ic_docu_mg3s4orsqtqj-stroke" data-item-order="1000000000" transform="translate(418, 152)"><g id="ic_docu_mg3s4orsqtqj-stroke" fill="none" stroke-linecap="round" stroke-linejoin="round" stroke-miterlimit="4" stroke="#1eabda" stroke-width="2"><g><path d="M 29.77125 30.786249C 29.77125 31.840422 30.625824 32.695 31.68 32.695C 32.734173 32.695 33.588749 31.840422 33.588749 30.786249C 33.588749 29.732077 32.734173 28.877499 31.68 28.877499C 30.625824 28.877499 29.77125 29.732077 29.77125 30.786249M 33.302502 23.4025L 33.864998 25.25C 34.056198 25.88726 34.709137 26.266773 35.357498 26.1175L 37.232498 25.682499C 37.962337 25.514441 38.716293 25.843069 39.089973 26.492126C 39.463654 27.141182 39.369293 27.95821 38.857498 28.504999L 37.547501 29.918751C 37.09351 30.407507 37.09351 31.163746 37.547501 31.6525L 38.857502 33.06625C 39.369293 33.613037 39.463654 34.430069 39.089973 35.079124C 38.716293 35.72818 37.962337 36.056808 37.232498 35.888748L 35.357498 35.455002C 34.709503 35.305618 34.056721 35.684494 33.864998 36.321251L 33.302502 38.169998C 33.087086 38.885689 32.428028 39.37558 31.680624 39.37558C 30.93322 39.37558 30.274166 38.885689 30.05875 38.169998L 29.49625 36.321251C 29.304529 35.684494 28.651749 35.305618 28.00375 35.455002L 26.12875 35.888752C 25.399445 36.054848 24.647095 35.725845 24.273891 35.077621C 23.900688 34.429394 23.993921 33.613564 24.50375 33.06625L 25.815001 31.6525C 26.26778 31.163269 26.26778 30.407982 25.815001 29.918751L 24.5075 28.5C 23.997671 27.952688 23.904438 27.136856 24.277641 26.488632C 24.650845 25.840408 25.403194 25.511404 26.1325 25.677502L 28.0075 26.112501C 28.654404 26.262218 29.306721 25.88525 29.5 25.25L 30.0625 23.4025C 30.279949 22.689926 30.937485 22.203106 31.682501 22.203106C 32.427513 22.203106 33.085052 22.689926 33.302502 23.4025ZM 20.125 18.278749L 17.4125 21.895C 17.246559 22.116314 16.992912 22.254927 16.71703 22.275059C 16.441149 22.295193 16.170065 22.194876 15.97375 22L 14.5 20.525M 20.125 26.8675L 17.4125 30.483749C 17.246672 30.705441 16.992699 30.844135 16.716551 30.863808C 16.440401 30.883482 16.169331 30.782192 15.97375 30.58625L 14.5 29.11375M 26.408751 10.625C 26.830793 10.624823 27.235565 10.792578 27.533751 11.09125L 33.759998 17.31625C 34.057632 17.615028 34.224823 18.019522 34.224998 18.44125M 34.224998 18.577499L 27.862499 18.577499C 26.984365 18.577499 26.272499 17.865633 26.272499 16.987499L 26.272499 10.625M 23.41 39.256252L 12.59375 39.256252C 11.539577 39.256248 10.685 38.401672 10.685 37.3475L 10.685 12.53375C 10.685 11.479576 11.539577 10.625 12.59375 10.625L 26.1175 10.625M 22.647499 21.77375L 26.408751 21.77375"></path></g></g></g><g id="g-root-ic_1_v4vh9krtak1x-stroke" data-item-order="1000000000" transform="translate(494, 404)"><g id="ic_1_v4vh9krtak1x-stroke" fill="none" stroke-linecap="round" stroke-linejoin="round" stroke-miterlimit="4" stroke="#e0cb15" stroke-width="2"><g><path d="M 38.157001 27.631624L 38.157001 22.368162L 32.776375 22.368162L 32.776375 27.631624L 38.157001 27.631624ZM 10 10M 25.252001 18.362213L 28.963875 14.650263L 25.252001 10.93833L 21.540051 14.650263L 25.252001 18.362213ZM 10 10M 32.247002 17.471838L 35.396751 11.828612L 38.808876 17.471838L 32.247002 17.471838ZM 25.252251 28.110624C 26.9865 28.110624 28.392374 26.70475 28.392374 24.970501C 28.392374 23.236374 26.9865 21.83045 25.252251 21.83045C 23.518 21.83045 22.112125 23.236374 22.112125 24.970501C 22.112125 26.70475 23.518 28.110624 25.252251 28.110624ZM 10 10M 29.941124 34.0625L 28.066124 32.1875L 20.816113 32.1875C 20.066113 30.3125 18.316101 29.0625 16.191099 29.0625C 13.4411 29.0625 11.191101 31.3125 11.191101 34.0625C 11.191101 36.8125 13.4411 39.0625 16.191099 39.0625C 18.316101 39.0625 20.066113 37.8125 20.816113 35.9375L 28.066124 35.9375L 29.941124 34.0625ZM 14.86755 35.296127C 15.54885 35.296127 16.101151 34.743874 16.101151 34.062622C 16.101151 33.381248 15.54885 32.829002 14.86755 32.829002C 14.186262 32.829002 13.633963 33.381248 13.633963 34.062622C 13.633963 34.743874 14.186262 35.296127 14.86755 35.296127Z"></path></g></g></g><g id="g-root-tx__1lwsduwrswhl2-stroke" data-item-order="1000000000" transform="translate(50, 425)"></g><g id="g-root-ic_view_zqbcbsrswgsv-stroke" data-item-order="1000000000" transform="translate(188, 422)"><g id="ic_view_zqbcbsrswgsv-stroke" fill="none" stroke-linecap="round" stroke-linejoin="round" stroke-miterlimit="4" stroke="#4e88e7" stroke-width="2"><g><path d="M 21.575001 31.914999L 13.75 31.914999C 12.369288 31.914999 11.25 30.795712 11.25 29.414999L 11.25 13.78C 11.25 12.399288 12.369288 11.28 13.75 11.28L 32.51125 11.28C 33.89196 11.28 35.01125 12.399288 35.01125 13.78L 35.01125 22.29125M 11.25 16.1625L 35.012501 16.1625M 11.25 26.5425L 21.709999 26.5425M 11.25 21.36125L 25.01375 21.36125M 20.956251 16.1625L 20.956251 31.914999M 27.91375 16.1625L 27.91375 21.36125M 30.0975 36.02C 33.51141 35.948929 36.222107 33.125214 36.153751 29.71125C 36.222107 26.297285 33.51141 23.473572 30.0975 23.4025C 26.68359 23.473572 23.972895 26.297285 24.04125 29.71125C 23.972895 33.125214 26.68359 35.948929 30.0975 36.02ZM 38.75 38.721249L 34.375 34.170002"></path></g></g></g><g id="g-root-tx__18gbzmwrtaih0-stroke" data-item-order="1000000000" transform="translate(530, 407)"></g><g id="g-root-ic_grap_1d15dm0rsxwjn-stroke" data-item-order="1000000000" transform="translate(264, 134)"><g id="ic_grap_1d15dm0rsxwjn-stroke" fill="none" stroke-linecap="round" stroke-linejoin="round" stroke-miterlimit="4" stroke="#de58a9" stroke-width="2"><g><path d="M 26.875 18.75C 26.875002 21.166246 28.833755 23.125 31.25 23.125C 33.666245 23.125 35.625 21.166246 35.625 18.75C 35.625 16.333755 33.666245 14.375 31.25 14.375C 28.833755 14.375 26.875002 16.333755 26.875002 18.75M 14.375 35.625L 17.125 31.77125C 17.222679 31.634512 17.371307 31.54287 17.537348 31.516998C 17.703388 31.491129 17.87285 31.533211 18.0075 31.633749L 19.5 32.75C 19.776142 32.957108 20.167892 32.901142 20.375 32.625L 23.75 28.125M 32.188751 14.47625L 31.25 18.75L 35.592503 18.21875M 28.75 26.875L 35 26.875C 35 26.875 35.625 26.875 35.625 27.5L 35.625 35C 35.625 35 35.625 35.625 35 35.625L 28.75 35.625C 28.75 35.625 28.125 35.625 28.125 35L 28.125 27.5C 28.125 27.5 28.125 26.875 28.75 26.875M 30.625 30.625L 33.125 30.625M 30.625 33.125L 31.875 33.125M 15 14.375L 21.25 14.375C 21.25 14.375 21.875 14.375 21.875 15L 21.875 22.5C 21.875 22.5 21.875 23.125 21.25 23.125L 15 23.125C 15 23.125 14.375 23.125 14.375 22.5L 14.375 15C 14.375 15 14.375 14.375 15 14.375M 16.875 16.875L 19.375 16.875M 16.875 19.375L 18.125 19.375M 11.875 10.625L 38.125 10.625C 38.125 10.625 39.375 10.625 39.375 11.875L 39.375 38.125C 39.375 38.125 39.375 39.375 38.125 39.375L 11.875 39.375C 11.875 39.375 10.625 39.375 10.625 38.125L 10.625 11.875C 10.625 11.875 10.625 10.625 11.875 10.625"></path></g></g></g><g id="g-root-ic_writ_1lxers8rtbz0v-stroke" data-item-order="1000000000" transform="translate(418, 518)"><g id="ic_writ_1lxers8rtbz0v-stroke" fill="none" stroke-linecap="round" stroke-linejoin="round" stroke-miterlimit="4" stroke="#92bd39" stroke-width="2"><g><path d="M 27.5 35.625L 11.875 35.625C 11.184644 35.625 10.625 35.065353 10.625 34.375L 10.625 11.875C 10.625 11.184644 11.184644 10.625 11.875 10.625L 29.375 10.625C 30.065355 10.625 30.625 11.184644 30.625 11.875L 30.625 19.375M 18.125 14.375L 25.625 14.375M 18.125 18.125L 25.625 18.125M 18.125 21.875L 21.25 21.875M 14.375 14.0625C 14.547589 14.0625 14.6875 14.202411 14.6875 14.375C 14.6875 14.547589 14.547589 14.6875 14.375 14.6875C 14.202411 14.6875 14.0625 14.547589 14.0625 14.375C 14.0625 14.202411 14.202411 14.0625 14.375 14.0625M 14.375 17.8125C 14.547589 17.8125 14.6875 17.952412 14.6875 18.125C 14.6875 18.297588 14.547589 18.4375 14.375 18.4375C 14.202411 18.4375 14.0625 18.297588 14.0625 18.125C 14.0625 17.952412 14.202411 17.8125 14.375 17.8125M 14.375 21.5625C 14.547589 21.5625 14.6875 21.702412 14.6875 21.875C 14.6875 22.047588 14.547589 22.1875 14.375 22.1875C 14.202411 22.1875 14.0625 22.047588 14.0625 21.875C 14.0625 21.702412 14.202411 21.5625 14.375 21.5625M 31.775 22.7125C 31.775 22.7125 31.025 21.4625 28.512501 22.137501C 24.9 23.0375 24.012501 27.050001 23.9375 27.512501M 21.987499 28.7125L 19.762501 32.275002L 23.9375 31.9125M 29.025 28.75L 35.662502 24.6875C 36.352436 24.089548 36.511379 23.081572 36.038929 22.300323C 35.566475 21.519075 34.599983 21.191698 33.75 21.525L 21.987499 28.75L 23.9375 31.949999L 26.25 30.512501M 32.625 29.862501L 27.862499 28.450001C 27.364044 28.264051 26.803514 28.371254 26.408852 28.72801C 26.014187 29.084768 25.851122 29.631664 25.985966 30.146303C 26.120808 30.660942 26.531103 31.057608 27.049999 31.175001L 30.050001 32.162498C 30.330414 33.842781 31.609194 35.181038 33.275002 35.537498L 33.387497 35.537498L 33.75 39.375M 39.375 39.375C 39.375 39.375 37.962502 28.387501 34.450001 25.475"></path></g></g></g><g id="g-root-tx__93e8fcrtbwue-stroke" data-item-order="1000000000" transform="translate(454, 521)"></g><g id="g-root-tx__1lto0fcrsxukk-stroke" data-item-order="1000000000" transform="translate(90, 539)"></g><g id="g-root-ic_sync_zmkht4rsxwy5-stroke" data-item-order="1000000000" transform="translate(264, 536)"><g id="ic_sync_zmkht4rsxwy5-stroke" fill="none" stroke-linecap="round" stroke-linejoin="round" stroke-miterlimit="4" stroke="#e55753" stroke-width="2"><g><path d="M 29.401249 33.686249L 24.8675 33.686249L 24.8675 38.41M 38.670002 34.610001C 37.749779 37.569077 34.931061 39.519897 31.8375 39.338753C 28.740133 39.072353 26.212347 36.749996 25.684999 33.686249M 34.841248 29.908751L 39.375 29.908751L 39.375 25.186251M 25.5725 28.9825C 26.494114 26.024918 29.312479 24.075884 32.404999 24.2575C 35.501034 24.524899 38.027912 26.8454 38.557503 29.907501M 10.625 15.7325L 35.420002 15.7325M 10.625 26.563751L 22.592501 26.563751M 10.625 21.15625L 35.41375 21.15625M 20.752501 15.7325L 20.752501 32.168751M 28.01375 15.7325L 28.01375 22.535M 21.647499 32.165001L 13.24 32.165001C 11.799227 32.164997 10.63125 30.997021 10.63125 29.556248L 10.63125 13.25C 10.633319 11.810692 11.800691 10.644999 13.24 10.645L 32.805 10.645C 34.244308 10.644999 35.411678 11.810692 35.41375 13.25L 35.41375 22.625"></path></g></g></g><g id="g-root-tx__1ursx0orsxxca-stroke" data-item-order="1000000000" transform="translate(54, 137)"></g><g id="g-root-ic_modu_m7d4x4rstnux-stroke" data-item-order="1000000000" transform="translate(254, 650)"><g id="ic_modu_m7d4x4rstnux-stroke" fill="none" stroke-linecap="round" stroke-linejoin="round" stroke-miterlimit="4" stroke="#de8431" stroke-width="2"><g><path d="M 35.05875 34.380001L 38.80875 34.380001C 38.80875 34.380001 39.43375 34.380001 39.43375 35.005001L 39.43375 38.755001C 39.43375 38.755001 39.43375 39.380001 38.80875 39.380001L 35.05875 39.380001C 35.05875 39.380001 34.43375 39.380001 34.43375 38.755001L 34.43375 35.005001C 34.43375 35.005001 34.43375 34.380001 35.05875 34.380001M 27.55875 34.380001L 31.30875 34.380001C 31.30875 34.380001 31.93375 34.380001 31.93375 35.005001L 31.93375 38.755001C 31.93375 38.755001 31.93375 39.380001 31.30875 39.380001L 27.55875 39.380001C 27.55875 39.380001 26.93375 39.380001 26.93375 38.755001L 26.93375 35.005001C 26.93375 35.005001 26.93375 34.380001 27.55875 34.380001M 31.30875 26.879999L 35.05875 26.879999C 35.05875 26.879999 35.68375 26.879999 35.68375 27.504999L 35.68375 31.254999C 35.68375 31.254999 35.68375 31.879999 35.05875 31.879999L 31.30875 31.879999C 31.30875 31.879999 30.68375 31.879999 30.68375 31.254999L 30.68375 27.504999C 30.68375 27.504999 30.68375 26.879999 31.30875 26.879999M 10.68375 15.63L 35.68375 15.63M 14.43375 12.8175L 14.43375 12.8175M 14.43375 12.8175C 14.261161 12.8175 14.12125 12.957411 14.12125 13.13C 14.12125 13.302589 14.261161 13.4425 14.43375 13.4425C 14.606339 13.4425 14.74625 13.302589 14.74625 13.13C 14.74625 12.957411 14.606339 12.8175 14.43375 12.8175M 16.93375 12.8175L 16.93375 12.8175M 16.93375 12.8175C 16.761162 12.8175 16.62125 12.957411 16.62125 13.13C 16.62125 13.302589 16.761162 13.4425 16.93375 13.4425C 17.106339 13.4425 17.24625 13.302589 17.24625 13.13C 17.24625 12.957411 17.106339 12.8175 16.93375 12.8175M 19.43375 12.8175L 19.43375 12.8175M 19.43375 12.8175C 19.261162 12.8175 19.12125 12.957411 19.12125 13.13C 19.12125 13.302589 19.261162 13.4425 19.43375 13.4425C 19.606339 13.4425 19.74625 13.302589 19.74625 13.13C 19.74625 12.957411 19.606339 12.8175 19.43375 12.8175M 26.93375 30.625L 13.18375 30.625C 11.803038 30.625 10.68375 29.505713 10.68375 28.125L 10.68375 13.125C 10.68375 11.744288 11.803038 10.625 13.18375 10.625L 33.18375 10.625C 34.564461 10.625 35.68375 11.744288 35.68375 13.125L 35.68375 24.375"></path></g></g></g><g id="g-root-tx__18ntru0rssa2o-stroke" data-item-order="1000000000" transform="translate(290, 653)"></g></g></g><path id="wqof2agub18gf" d="M65.283 12.757a.35.35 0 0 0 .584.157l5.203-5.141-6.183 3.523.396 1.461zm-2.216-11.7a.35.35 0 0 0-.522.305v3.111l3.276-1.868-2.754-1.548zm3.728 2.105l-4.25 2.421v2.445l6.391-3.644-2.141-1.222zm4.708 3.303a.35.35 0 0 0 0-.609l-1.592-.9-7.365 4.199v1.782a.35.35 0 0 0 .523.305l8.435-4.777z M44.542 2.513c0-.433.355-.783.792-.783s.792.35.792.783-.355.783-.792.783-.792-.35-.792-.783zm59.171 0c0-.433.355-.783.792-.783s.792.35.792.783-.355.783-.792.783-.792-.35-.792-.783zm-85.951 7.636h-1.27v-.487c-.276.201-.864.609-1.881.609-1.202 0-2.274-.794-2.137-2.078.118-1.106 1.153-1.584 1.848-1.727l2.17-.345c0-.539-.29-.956-1.064-1.006s-1.21.305-1.571 1.017l-1.124-.605c1.218-2.631 5.029-1.764 5.029.414v4.207zm-1.27-2.86c.006.396-.062 1.112-.819 1.59-.587.37-1.841.299-1.903-.395-.049-.555.461-.791.906-.898l1.816-.297zm72.662 2.86h-1.27v-.487c-.276.201-.864.609-1.881.609-1.202 0-2.274-.794-2.137-2.078.118-1.106 1.153-1.584 1.848-1.727l2.17-.345c0-.539-.29-.956-1.064-1.006s-1.21.305-1.571 1.017l-1.124-.605c1.218-2.631 5.029-1.764 5.029.414v4.207zm-1.27-2.86c.006.396-.062 1.112-.82 1.59-.587.37-1.841.299-1.903-.395-.049-.555.461-.791.906-.898l1.816-.297zM99.096 10.149H97.85v-8.45h1.246v4.895l2.68-2.559h1.738l-2.633 2.535 2.715 3.578h-1.556l-2.077-2.707-.867.844v1.863zm6.053-6.114h-1.255v6.113h1.255V4.035zm-59.2 0h-1.255v6.113h1.255V4.035zm5.584 6.113V1.697h1.255v2.695c.361-.346 1-.485 1.47-.485 1.452 0 2.477 1.082 2.457 2.448v3.792h-1.27v-3.68c0-.408-.214-1.339-1.315-1.339-.968 0-1.342.756-1.342 1.339v3.681h-1.255zm-4.76-4.894V4.039h.621a.45.45 0 0 0 .45-.45v-.855h1.251v1.305h1.309v1.215h-1.309v3.109c0 .293.105.664.648.664.365 0 .531-.035.736-.07v1.137s-.361.113-.857.113c-1.398 0-1.777-1.051-1.777-1.788V5.254h-1.071zM36.528 4.039h-1.394l2.191 6.106h1.125l1.234-3.918 1.238 3.918h1.129l2.188-6.106h-1.383l-1.359 3.93-1.256-3.93h-1.124l-1.242 3.957-1.348-3.957zM26.212 7.141c-.02 1.566 1.187 3.129 3.223 3.129 1.566 0 2.383-.918 2.734-1.719L31.172 8c-.315.399-.801 1.094-1.738 1.094-1.145 0-1.825-.781-1.891-1.52h4.625c.074-.284.148-.995-.03-1.559-.336-1.064-1.221-2.102-2.839-2.102s-3.088 1.152-3.088 3.227zm1.363-.75h3.348c-.055-.43-.566-1.301-1.623-1.301a1.79 1.79 0 0 0-1.725 1.301zm-8.758.75c.038 1.758 1.277 3.133 3.145 3.133 1.074 0 1.723-.477 1.961-.672v.547h1.242V1.703h-1.258v2.888c-.414-.36-1.062-.68-1.93-.68-1.91 0-3.198 1.473-3.16 3.23zm1.309-.08c0 1.119.723 1.978 1.836 1.978a1.88 1.88 0 0 0 1.94-1.904c0-1.371-1.011-1.99-1.972-1.99s-1.805.798-1.805 1.916zm76.683-.028C96.771 5.275 95.532 3.9 93.664 3.9c-1.074 0-1.723.477-1.961.672v-.547h-1.242v8.22h1.258V9.583c.414.36 1.063.68 1.93.68 1.91 0 3.198-1.473 3.16-3.23zm-1.309.08c0-1.119-.723-1.978-1.836-1.978a1.88 1.88 0 0 0-1.94 1.904c0 1.371 1.011 1.99 1.972 1.99S95.5 8.231 95.5 7.113zM106.441 10.173V4.036h1.254v.382c.361-.346 1-.485 1.47-.485 1.452 0 2.477 1.082 2.457 2.448v3.792h-1.27V6.492c0-.408-.214-1.339-1.315-1.339-.969 0-1.342.756-1.342 1.339v3.681h-1.254zm-30.383-.021V1.824h1.084l4.215 5.777V1.824h1.32v8.328h-1.094l-4.207-5.796v5.796h-1.319zM5.24 10.149H4V2.377h1.014l2.664 3.597 2.654-3.592h1.03v7.766h-1.256V4.762L7.678 8.068 5.24 4.742v5.407z" transform="translate(608, 752)" fill="#80808088" stroke="none"></path></svg>